<?xml version="1.0" encoding="UTF-8" standalone="no"?>
<!DOCTYPE svg PUBLIC "-//W3C//DTD SVG 1.1//EN" "http://www.w3.org/Graphics/SVG/1.1/DTD/svg11.dtd">
<!-- Generated by Microsoft Visio, SVG Export X-Road.svg Page-1 -->
<svg xmlns="http://www.w3.org/2000/svg" xmlns:xlink="http://www.w3.org/1999/xlink" xmlns:ev="http://www.w3.org/2001/xml-events"
		xmlns:v="http://schemas.microsoft.com/visio/2003/SVGExtensions/" width="11.811in" height="11.811in"
		viewBox="0 0 850.394 850.394" xml:space="preserve" color-interpolation-filters="sRGB" class="st36">
    <rect width="100%" height="100%" fill="white"/>
	<v:documentProperties v:langID="1033" v:metric="true" v:viewMarkup="false">
		<v:userDefs>
			<v:ud v:nameU="msvSubprocessMaster" v:prompt="" v:val="VT4(Rectangle)"/>
			<v:ud v:nameU="msvNoAutoConnect" v:val="VT0(1):26"/>
		</v:userDefs>
	</v:documentProperties>

	<style type="text/css">
	<![CDATA[
		.st1 {fill:#ffffff;stroke:#99c2eb;stroke-dasharray:4.9,3.5;stroke-linecap:round;stroke-linejoin:round;stroke-width:0.7}
		.st2 {fill:#ffffff;stroke:none;stroke-linecap:round;stroke-linejoin:round;stroke-width:0.24}
		.st3 {fill:#000000;font-family:Calibri;font-size:0.833336em}
		.st4 {font-size:1em}
		.st5 {fill:#949494;stroke:none;stroke-linecap:butt;stroke-width:0.75}
		.st6 {fill:#a3a3a3;stroke:none;stroke-linecap:butt;stroke-width:0.75}
		.st7 {fill:#32bedd;stroke:none;stroke-linecap:butt;stroke-width:0.75}
		.st8 {fill:#9cebff;stroke:none;stroke-linecap:butt;stroke-width:0.75}
		.st9 {fill:#50e6ff;stroke:none;stroke-linecap:butt;stroke-width:0.75}
		.st10 {fill:#ffffff;stroke:#99c2eb;stroke-dasharray:0.01,3.5;stroke-width:0.7}
		.st11 {fill:url(#grad0-81);stroke:none;stroke-linecap:butt;stroke-width:0.75}
		.st12 {fill:url(#grad0-85);stroke:none;stroke-linecap:butt;stroke-width:0.75}
		.st13 {fill:#1490df;stroke:none;stroke-linecap:butt;stroke-width:0.75}
		.st14 {fill:url(#grad0-160);stroke:none;stroke-linecap:butt;stroke-width:0.75}
		.st15 {fill:#ffffff;stroke:none;stroke-linecap:butt;stroke-width:0.75}
		.st16 {fill:#0078d4;stroke:none;stroke-linecap:butt;stroke-width:0.75}
		.st17 {fill:#000000;font-family:Calibri;font-size:0.75em}
		.st18 {fill:url(#grad0-176);stroke:none;stroke-linecap:butt;stroke-width:0.75}
		.st19 {fill:url(#grad0-180);stroke:none;stroke-linecap:butt;stroke-width:0.75}
		.st20 {fill:#4672c4;stroke:#c7c8c8;stroke-width:0.25}
		.st21 {fill:#1a2d51;font-family:Calibri;font-size:0.833336em}
		.st22 {fill:url(#grad0-199);stroke:none;stroke-linecap:butt;stroke-width:0.75}
		.st23 {fill:#c3f1ff;stroke:none;stroke-linecap:butt;stroke-width:0.75}
		.st24 {fill:url(#grad0-213);stroke:none;stroke-linecap:butt;stroke-width:0.75}
		.st25 {fill:url(#grad0-220);stroke:none;stroke-linecap:butt;stroke-width:0.75}
		.st26 {fill:#e8e8e8;stroke:none;stroke-linecap:butt;stroke-width:0.75}
		.st27 {fill:#198ab3;stroke:none;stroke-linecap:butt;stroke-width:0.75}
		.st28 {fill:#f2f2f2;stroke:none;stroke-linecap:butt;stroke-width:0.75}
		.st29 {fill:#6bb9f2;stroke:none;stroke-linecap:butt;stroke-width:0.75}
		.st30 {fill:url(#grad0-239);stroke:none;stroke-linecap:butt;stroke-width:0.75}
		.st31 {marker-end:url(#mrkr4-250);stroke:#4672c4;stroke-linecap:round;stroke-linejoin:round;stroke-width:1}
		.st32 {fill:#4672c4;fill-opacity:1;stroke:#4672c4;stroke-opacity:1;stroke-width:0.28409090909091}
		.st33 {fill:url(#grad0-337);stroke:none;stroke-linecap:butt;stroke-width:0.75}
		.st34 {fill:#ffffff;stroke:#30518f;stroke-width:0.75}
		.st35 {fill:#31528f;font-family:Calibri;font-size:0.833336em}
		.st36 {fill:none;fill-rule:evenodd;font-size:12px;overflow:visible;stroke-linecap:square;stroke-miterlimit:3}
	]]>
	</style>

	<defs id="Patterns_And_Gradients">
		<linearGradient id="grad0-81" x1="0" y1="0" x2="1" y2="0" gradientTransform="rotate(-90.079999999999 0.5 0.5)">
			<stop offset="0" stop-color="#0078d4" stop-opacity="1"/>
			<stop offset="0.82" stop-color="#5ea0ef" stop-opacity="1"/>
		</linearGradient>
		<linearGradient id="grad0-85" x1="0" y1="0" x2="1" y2="0" gradientTransform="rotate(-89.753036962574 0.5 0.5)">
			<stop offset="0" stop-color="#0078d4" stop-opacity="1"/>
			<stop offset="0.82" stop-color="#5ea0ef" stop-opacity="1"/>
		</linearGradient>
		<linearGradient id="grad0-160" x1="0" y1="0" x2="1" y2="0" gradientTransform="rotate(-90 0.5 0.5)">
			<stop offset="0" stop-color="#0078d4" stop-opacity="1"/>
			<stop offset="0.15" stop-color="#1882db" stop-opacity="1"/>
			<stop offset="0.375" stop-color="#378fe4" stop-opacity="1"/>
			<stop offset="0.595" stop-color="#4c99ea" stop-opacity="1"/>
			<stop offset="0.805" stop-color="#5a9eee" stop-opacity="1"/>
			<stop offset="1" stop-color="#5ea0ef" stop-opacity="1"/>
		</linearGradient>
		<linearGradient id="grad0-176" x1="0" y1="0" x2="1" y2="0" gradientTransform="rotate(-90 0.5 0.5)">
			<stop offset="0" stop-color="#1988d9" stop-opacity="1"/>
			<stop offset="0.9" stop-color="#54aef0" stop-opacity="1"/>
		</linearGradient>
		<linearGradient id="grad0-180" x1="0" y1="0" x2="1" y2="0" gradientTransform="rotate(-90 0.5 0.5)">
			<stop offset="0" stop-color="#198ab3" stop-opacity="1"/>
			<stop offset="0.01" stop-color="#198bb4" stop-opacity="1"/>
			<stop offset="0.44" stop-color="#27b2d7" stop-opacity="1"/>
			<stop offset="0.79" stop-color="#2fcbed" stop-opacity="1"/>
			<stop offset="1" stop-color="#32d4f5" stop-opacity="1"/>
		</linearGradient>
		<linearGradient id="grad0-199" x1="0" y1="0" x2="1" y2="0" gradientTransform="rotate(-90 0.5 0.5)">
			<stop offset="0" stop-color="#0078d4" stop-opacity="1"/>
			<stop offset="0.82" stop-color="#5ea0ef" stop-opacity="1"/>
		</linearGradient>
		<linearGradient id="grad0-213" x1="0" y1="0" x2="1" y2="0" gradientTransform="rotate(-90 0.5 0.5)">
			<stop offset="0.15" stop-color="#cccccc" stop-opacity="1"/>
			<stop offset="1" stop-color="#707070" stop-opacity="1"/>
		</linearGradient>
		<linearGradient id="grad0-220" x1="0" y1="0" x2="1" y2="0" gradientTransform="rotate(-0.0087329700482809 0.5 0.5)">
			<stop offset="0" stop-color="#005ba1" stop-opacity="1"/>
			<stop offset="0.07" stop-color="#0060a9" stop-opacity="1"/>
			<stop offset="0.36" stop-color="#0071c8" stop-opacity="1"/>
			<stop offset="0.52" stop-color="#0078d4" stop-opacity="1"/>
			<stop offset="0.64" stop-color="#0074cd" stop-opacity="1"/>
			<stop offset="0.82" stop-color="#006abb" stop-opacity="1"/>
			<stop offset="1" stop-color="#005ba1" stop-opacity="1"/>
		</linearGradient>
		<linearGradient id="grad0-239" x1="0" y1="0" x2="1" y2="0" gradientTransform="rotate(90 0.5 0.5)">
			<stop offset="0" stop-color="#5ea0ef" stop-opacity="1"/>
			<stop offset="0.18" stop-color="#559cec" stop-opacity="1"/>
			<stop offset="0.47" stop-color="#3c91e5" stop-opacity="1"/>
			<stop offset="0.84" stop-color="#1380da" stop-opacity="1"/>
			<stop offset="1" stop-color="#0078d4" stop-opacity="1"/>
		</linearGradient>
		<linearGradient id="grad0-337" x1="0" y1="0" x2="1" y2="0" gradientTransform="rotate(-90 0.5 0.5)">
			<stop offset="0" stop-color="#5e9624" stop-opacity="1"/>
			<stop offset="0.18" stop-color="#629c25" stop-opacity="1"/>
			<stop offset="0.44" stop-color="#6dae2a" stop-opacity="1"/>
			<stop offset="0.73" stop-color="#7fcb30" stop-opacity="1"/>
			<stop offset="0.82" stop-color="#86d633" stop-opacity="1"/>
		</linearGradient>
	</defs>
	<defs id="Markers">
		<g id="lend4">
			<path d="M 2 1 L 0 0 L 2 -1 L 2 1 " style="stroke:none"/>
		</g>
		<marker id="mrkr4-250" class="st32" v:arrowType="4" v:arrowSize="2" v:setback="7.04" refX="-7.04" orient="auto"
				markerUnits="strokeWidth" overflow="visible">
			<use xlink:href="#lend4" transform="scale(-3.52,-3.52) "/>
		</marker>
	</defs>
	<g v:mID="0" v:index="1" v:groupContext="foregroundPage">
		<v:userDefs>
			<v:ud v:nameU="msvThemeOrder" v:val="VT0(0):26"/>
		</v:userDefs>
		<title>Page-1</title>
		<v:pageProperties v:drawingScale="0.0393701" v:pageScale="0.0393701" v:drawingUnits="24" v:shadowOffsetX="8.50394"
				v:shadowOffsetY="-8.50394"/>
		<v:layer v:name="Connector" v:index="0"/>
		<v:layer v:name="Callout" v:index="1"/>
		<g id="group23-1" transform="translate(317.055,-620.22)" v:mID="23" v:groupContext="group">
			<v:userDefs>
				<v:ud v:nameU="msvStructureType" v:prompt="" v:val="VT4(Container)"/>
			</v:userDefs>
			<title>Resource Groups</title>
			<g id="shape24-2" v:mID="24" v:groupContext="shape">
				<title>Rectangle</title>
				<v:userDefs>
					<v:ud v:nameU="visVersion" v:val="VT0(15):26"/>
				</v:userDefs>
				<path d="M0 850.39 L208.08 850.39 L208.08 670.39 L0 670.39 L0 850.39 Z" class="st1"/>
			</g>
			<g id="shape25-4" v:mID="25" v:groupContext="shape" transform="translate(45,-149.196)">
				<title>Rectangle.2</title>
				<desc>rg-xroad-ops</desc>
				<v:userDefs>
					<v:ud v:nameU="visVersion" v:val="VT0(15):26"/>
					<v:ud v:nameU="msvStructureType" v:prompt="" v:val="VT4(Header)"/>
					<v:ud v:nameU="imageOffset" v:prompt="" v:val="VT0(0.5):26"/>
					<v:ud v:nameU="borderOffset" v:prompt="" v:val="VT0(0.25):26"/>
					<v:ud v:nameU="topOffset" v:prompt="" v:val="VT0(0.15):26"/>
				</v:userDefs>
				<v:textBlock v:margins="rect(4,4,4,4)" v:tabSpace="42.5197"/>
				<v:textRect cx="77.04" cy="840.392" width="154.09" height="20.0036"/>
				<rect x="0" y="830.39" width="154.08" height="20.0036" class="st2"/>
				<text x="1.12em 1.469em" y="843.39" class="st3" v:langID="1033"><v:paragraph v:indentLeft="7.2" v:horizAlign="3"/><v:tabList/>rg<tspan
							x="1.939em" dy="0em" class="st4">-</tspan><tspan x="2.245em 2.679em 3.027em 3.555em 4.034em" dy="0em"
							class="st4">xroad</tspan><tspan x="4.559em" dy="0em" class="st4">-</tspan><tspan x="4.865em 5.392em 5.918em"
							dy="0em" class="st4">ops</tspan></text>			</g>
			<g id="group26-11" transform="translate(7.2,-140.4)" v:mID="26" v:groupContext="group">
				<title>Resource Groups</title>
				<desc>Resource Groups</desc>
				<g id="group27-12" v:mID="27" v:groupContext="group">
					<title>Sheet.27</title>
					<g id="group28-13" v:mID="28" v:groupContext="group">
						<title>Sheet.28</title>
						<g id="shape29-14" v:mID="29" v:groupContext="shape">
							<title>Sheet.29</title>
							<path d="M0 846.91 a0.271059 0.287467 -180 0 0 0.135529 0.251533 L2.1 848.33 L5.42 850.36 a0.288 0.305433
										 -180 0 0 0.389647 -0.1078 L6.93 848.24 a0.271059 0.287467 -180 0 0 -0.101647 -0.3773 L2.93
										 845.53 a0.288 0.305433 0 0 1 -0.135529 -0.251533 L2.8 826.74 a0.271059 0.287467 0 0 1 0.135529
										 -0.251533 L6.83 824.15 a0.271059 0.287467 -180 0 0 0.101647 -0.3773 L5.81 821.76 a0.288
										 0.305433 -180 0 0 -0.389647 -0.143733 L2.17 823.61 L0.14 824.81 a0.271059 0.287467 -180
										 0 0 -0.135529 0.251533 L0 846.91 Z" class="st5"/>
						</g>
						<g id="shape30-16" v:mID="30" v:groupContext="shape" transform="translate(0,-23.8002)">
							<title>Sheet.30</title>
							<path d="M2.78 850.39 L2.88 850.29 L6.78 847.95 a0.237176 0.251533 -180 0 0 0.101647 -0.3773 L5.76 845.56
										 a0.254118 0.2695 -180 0 0 -0.372706 -0.143733 L2.12 847.41 L0.1 848.62 C0.1 848.62 0.02
										 848.62 0 848.72 L1.52 849.64 L2.78 850.39 Z" class="st6"/>
						</g>
						<g id="shape31-18" v:mID="31" v:groupContext="shape" transform="translate(0.0169412,-0.0650351)">
							<title>Sheet.31</title>
							<path d="M6.76 847.9 L2.86 845.56 a0.372706 0.395267 0 0 1 -0.118588 -0.1617 L0 847.19 L0.08 847.19 L2.03
										 848.36 L5.42 850.36 a0.254118 0.2695 -180 0 0 0.372706 -0.1078 L6.91 848.24 a0.237176 0.251533
										 -180 0 0 -0.152471 -0.341367 Z" class="st6"/>
						</g>
					</g>
					<g id="shape32-20" v:mID="32" v:groupContext="shape" transform="translate(21.8517,0)">
						<title>Sheet.32</title>
						<path d="M6.95 846.91 a0.271059 0.287467 0 0 1 -0.135529 0.251533 L4.85 848.33 L1.53 850.36 a0.288 0.305433
									 0 0 1 -0.389647 -0.1078 L0.02 848.24 a0.271059 0.287467 0 0 1 0.101647 -0.3773 L4.02 845.53
									 a0.288 0.305433 -180 0 0 0.135529 -0.251533 L4.15 826.74 a0.271059 0.287467 -180 0 0 -0.135529
									 -0.251533 L0.12 824.15 a0.271059 0.287467 0 0 1 -0.101647 -0.3773 L1.14 821.76 a0.288 0.305433
									 0 0 1 0.389647 -0.143733 L4.78 823.58 L6.81 824.78 a0.271059 0.287467 0 0 1 0.135529 0.251533
									 L6.95 846.91 Z" class="st5"/>
					</g>
					<g id="shape33-22" v:mID="33" v:groupContext="shape" transform="translate(21.8874,-23.8002)">
						<title>Sheet.33</title>
						<path d="M4.13 850.39 L4.03 850.29 L0.14 847.95 a0.237176 0.251533 0 0 1 -0.101647 -0.3773 L1.15 845.56 a0.254118
									 0.2695 0 0 1 0.372706 -0.143733 L4.79 847.38 L6.81 848.58 C6.81 848.58 6.81 848.58 6.91 848.69
									 L5.39 849.6 L4.13 850.39 Z" class="st6"/>
					</g>
					<g id="shape34-24" v:mID="34" v:groupContext="shape" transform="translate(21.9248,-0.0650351)">
						<title>Sheet.34</title>
						<path d="M0.1 847.9 L4 845.56 a0.372706 0.395267 -180 0 0 0.118588 -0.1617 L6.86 847.19 L4.91 848.36 L1.52
									 850.36 a0.254118 0.2695 0 0 1 -0.372706 -0.1078 L0.03 848.24 a0.237176 0.251533 0 0 1 0.0677647
									 -0.341367 Z" class="st6"/>
					</g>
					<g id="shape35-26" v:mID="35" v:groupContext="shape" transform="translate(14.3831,-3.33619)">
						<title>Sheet.35</title>
						<path d="M9.01 833.81 L9.01 844.84 L0 850.39 L0 839.34 L9.01 833.81 Z" class="st7"/>
					</g>
					<g id="shape36-28" v:mID="36" v:groupContext="shape" transform="translate(5.38729,-14.3677)">
						<title>Sheet.36</title>
						<path d="M18.01 844.84 L9.01 850.39 L0 844.84 L9.01 839.29 L18.01 844.84 Z" class="st8"/>
					</g>
					<g id="shape37-30" v:mID="37" v:groupContext="shape" transform="translate(5.38729,-3.33619)">
						<title>Sheet.37</title>
						<path d="M9 839.36 L9 850.39 L0 844.84 L0 833.81 L9 839.36 Z" class="st9"/>
					</g>
					<g id="shape38-32" v:mID="38" v:groupContext="shape" transform="translate(5.38729,-3.33619)">
						<title>Sheet.38</title>
						<path d="M0 844.84 L9 839.34 L9 850.39 L0 844.84 Z" class="st8"/>
					</g>
					<g id="shape39-34" v:mID="39" v:groupContext="shape" transform="translate(14.3831,-3.33619)">
						<title>Sheet.39</title>
						<path d="M9.01 844.84 L0 839.34 L0 850.39 L9.01 844.84 Z" class="st9"/>
					</g>
				</g>
			</g>
		</g>
		<g id="group57-36" transform="translate(48.4895,-237.543)" v:mID="57" v:groupContext="group">
			<v:userDefs>
				<v:ud v:nameU="msvStructureType" v:prompt="" v:val="VT4(Container)"/>
			</v:userDefs>
			<title>Resource Groups.57</title>
			<g id="shape58-37" v:mID="58" v:groupContext="shape">
				<title>Rectangle</title>
				<v:userDefs>
					<v:ud v:nameU="visVersion" v:val="VT0(15):26"/>
				</v:userDefs>
				<path d="M0 850.39 L345.83 850.39 L345.83 488.82 L0 488.82 L0 850.39 Z" class="st1"/>
			</g>
			<g id="shape59-39" v:mID="59" v:groupContext="shape" transform="translate(45,-330.768)">
				<title>Rectangle.2</title>
				<desc>rg-xroad-dev</desc>
				<v:userDefs>
					<v:ud v:nameU="visVersion" v:val="VT0(15):26"/>
					<v:ud v:nameU="msvStructureType" v:prompt="" v:val="VT4(Header)"/>
					<v:ud v:nameU="imageOffset" v:prompt="" v:val="VT0(0.5):26"/>
					<v:ud v:nameU="borderOffset" v:prompt="" v:val="VT0(0.25):26"/>
					<v:ud v:nameU="topOffset" v:prompt="" v:val="VT0(0.15):26"/>
				</v:userDefs>
				<v:textBlock v:margins="rect(4,4,4,4)" v:tabSpace="42.5197"/>
				<v:textRect cx="145.913" cy="840.392" width="291.83" height="20.0036"/>
				<rect x="0" y="830.39" width="291.827" height="20.0036" class="st2"/>
				<text x="1.12em 1.469em" y="843.39" class="st3" v:langID="1033"><v:paragraph v:indentLeft="7.2" v:horizAlign="3"/><v:tabList/>rg<tspan
							x="1.939em" dy="0em" class="st4">-</tspan><tspan x="2.245em 2.679em 3.027em 3.555em 4.034em" dy="0em"
							class="st4">xroad</tspan><tspan x="4.559em" dy="0em" class="st4">-</tspan><tspan x="4.865em 5.391em 5.888em"
							dy="0em" class="st4">dev</tspan></text>			</g>
			<g id="group60-46" transform="translate(7.2,-321.972)" v:mID="60" v:groupContext="group">
				<title>Resource Groups</title>
				<desc>Resource Groups</desc>
				<g id="group61-47" v:mID="61" v:groupContext="group">
					<title>Sheet.61</title>
					<g id="group62-48" v:mID="62" v:groupContext="group">
						<title>Sheet.62</title>
						<g id="shape63-49" v:mID="63" v:groupContext="shape">
							<title>Sheet.63</title>
							<path d="M0 846.91 a0.271059 0.287467 -180 0 0 0.135529 0.251533 L2.1 848.33 L5.42 850.36 a0.288 0.305433
										 -180 0 0 0.389647 -0.1078 L6.93 848.24 a0.271059 0.287467 -180 0 0 -0.101647 -0.3773 L2.93
										 845.53 a0.288 0.305433 0 0 1 -0.135529 -0.251533 L2.8 826.74 a0.271059 0.287467 0 0 1 0.135529
										 -0.251533 L6.83 824.15 a0.271059 0.287467 -180 0 0 0.101647 -0.3773 L5.81 821.76 a0.288
										 0.305433 -180 0 0 -0.389647 -0.143733 L2.17 823.61 L0.14 824.81 a0.271059 0.287467 -180
										 0 0 -0.135529 0.251533 L0 846.91 Z" class="st5"/>
						</g>
						<g id="shape64-51" v:mID="64" v:groupContext="shape" transform="translate(0,-23.8002)">
							<title>Sheet.64</title>
							<path d="M2.78 850.39 L2.88 850.29 L6.78 847.95 a0.237176 0.251533 -180 0 0 0.101647 -0.3773 L5.76 845.56
										 a0.254118 0.2695 -180 0 0 -0.372706 -0.143733 L2.12 847.41 L0.1 848.62 C0.1 848.62 0.02
										 848.62 0 848.72 L1.52 849.64 L2.78 850.39 Z" class="st6"/>
						</g>
						<g id="shape65-53" v:mID="65" v:groupContext="shape" transform="translate(0.0169412,-0.0650351)">
							<title>Sheet.65</title>
							<path d="M6.76 847.9 L2.86 845.56 a0.372706 0.395267 0 0 1 -0.118588 -0.1617 L0 847.19 L0.08 847.19 L2.03
										 848.36 L5.42 850.36 a0.254118 0.2695 -180 0 0 0.372706 -0.1078 L6.91 848.24 a0.237176 0.251533
										 -180 0 0 -0.152471 -0.341367 Z" class="st6"/>
						</g>
					</g>
					<g id="shape66-55" v:mID="66" v:groupContext="shape" transform="translate(21.8517,0)">
						<title>Sheet.66</title>
						<path d="M6.95 846.91 a0.271059 0.287467 0 0 1 -0.135529 0.251533 L4.85 848.33 L1.53 850.36 a0.288 0.305433
									 0 0 1 -0.389647 -0.1078 L0.02 848.24 a0.271059 0.287467 0 0 1 0.101647 -0.3773 L4.02 845.53
									 a0.288 0.305433 -180 0 0 0.135529 -0.251533 L4.15 826.74 a0.271059 0.287467 -180 0 0 -0.135529
									 -0.251533 L0.12 824.15 a0.271059 0.287467 0 0 1 -0.101647 -0.3773 L1.14 821.76 a0.288 0.305433
									 0 0 1 0.389647 -0.143733 L4.78 823.58 L6.81 824.78 a0.271059 0.287467 0 0 1 0.135529 0.251533
									 L6.95 846.91 Z" class="st5"/>
					</g>
					<g id="shape67-57" v:mID="67" v:groupContext="shape" transform="translate(21.8874,-23.8002)">
						<title>Sheet.67</title>
						<path d="M4.13 850.39 L4.03 850.29 L0.14 847.95 a0.237176 0.251533 0 0 1 -0.101647 -0.3773 L1.15 845.56 a0.254118
									 0.2695 0 0 1 0.372706 -0.143733 L4.79 847.38 L6.81 848.58 C6.81 848.58 6.81 848.58 6.91 848.69
									 L5.39 849.6 L4.13 850.39 Z" class="st6"/>
					</g>
					<g id="shape68-59" v:mID="68" v:groupContext="shape" transform="translate(21.9248,-0.0650351)">
						<title>Sheet.68</title>
						<path d="M0.1 847.9 L4 845.56 a0.372706 0.395267 -180 0 0 0.118588 -0.1617 L6.86 847.19 L4.91 848.36 L1.52
									 850.36 a0.254118 0.2695 0 0 1 -0.372706 -0.1078 L0.03 848.24 a0.237176 0.251533 0 0 1 0.0677647
									 -0.341367 Z" class="st6"/>
					</g>
					<g id="shape69-61" v:mID="69" v:groupContext="shape" transform="translate(14.3831,-3.33619)">
						<title>Sheet.69</title>
						<path d="M9.01 833.81 L9.01 844.84 L0 850.39 L0 839.34 L9.01 833.81 Z" class="st7"/>
					</g>
					<g id="shape70-63" v:mID="70" v:groupContext="shape" transform="translate(5.38729,-14.3677)">
						<title>Sheet.70</title>
						<path d="M18.01 844.84 L9.01 850.39 L0 844.84 L9.01 839.29 L18.01 844.84 Z" class="st8"/>
					</g>
					<g id="shape71-65" v:mID="71" v:groupContext="shape" transform="translate(5.38729,-3.33619)">
						<title>Sheet.71</title>
						<path d="M9 839.36 L9 850.39 L0 844.84 L0 833.81 L9 839.36 Z" class="st9"/>
					</g>
					<g id="shape72-67" v:mID="72" v:groupContext="shape" transform="translate(5.38729,-3.33619)">
						<title>Sheet.72</title>
						<path d="M0 844.84 L9 839.34 L9 850.39 L0 844.84 Z" class="st8"/>
					</g>
					<g id="shape73-69" v:mID="73" v:groupContext="shape" transform="translate(14.3831,-3.33619)">
						<title>Sheet.73</title>
						<path d="M9.01 844.84 L0 839.34 L0 850.39 L9.01 844.84 Z" class="st9"/>
					</g>
				</g>
			</g>
		</g>
		<g id="group12-71" transform="translate(110.076,-282.009)" v:mID="12" v:groupContext="group">
			<v:userDefs>
				<v:ud v:nameU="msvStructureType" v:prompt="" v:val="VT4(Container)"/>
			</v:userDefs>
			<title>Virtual Network.12</title>
			<g id="shape13-72" v:mID="13" v:groupContext="shape">
				<title>Rectangle</title>
				<v:userDefs>
					<v:ud v:nameU="visVersion" v:val="VT0(15):26"/>
				</v:userDefs>
				<path d="M0 850.39 L234.5 850.39 L234.5 597.52 L0 597.52 L0 850.39 Z" class="st10"/>
			</g>
			<g id="shape14-74" v:mID="14" v:groupContext="shape" transform="translate(45,-219.674)">
				<title>Rectangle.28</title>
				<desc>Development Virtual Network</desc>
				<v:userDefs>
					<v:ud v:nameU="visVersion" v:val="VT0(15):26"/>
					<v:ud v:nameU="msvStructureType" v:prompt="" v:val="VT4(Header)"/>
					<v:ud v:nameU="imageOffset" v:prompt="" v:val="VT0(0.5):26"/>
					<v:ud v:nameU="borderOffset" v:prompt="" v:val="VT0(0.25):26"/>
					<v:ud v:nameU="topOffset" v:prompt="" v:val="VT0(0.15):26"/>
				</v:userDefs>
				<v:textBlock v:margins="rect(4,4,4,4)"/>
				<v:textRect cx="90.2502" cy="839.192" width="180.51" height="22.4037"/>
				<rect x="0" y="827.99" width="180.5" height="22.4037" class="st2"/>
				<text x="4" y="842.79" class="st3" v:langID="1033"><v:paragraph/><v:tabList/>Development Virtual Network</text>			</g>
			<g id="group15-77" transform="translate(7.2,-213.278)" v:mID="15" v:groupContext="group">
				<title>Virtual Networks</title>
				<g id="shape16-78" v:mID="16" v:groupContext="shape" transform="translate(18.5285,-11.326)">
					<title>Sheet.16</title>
					<ellipse cx="1.85534" cy="847.296" rx="1.85534" ry="3.09807" class="st11"/>
				</g>
				<g id="shape17-82" v:mID="17" v:groupContext="shape" transform="translate(12.6106,-11.2993)">
					<title>Sheet.17</title>
					<ellipse cx="1.85534" cy="847.296" rx="1.85534" ry="3.09807" class="st12"/>
				</g>
				<g id="shape18-86" v:mID="18" v:groupContext="shape" transform="translate(6.69276,-11.2993)">
					<title>Sheet.18</title>
					<ellipse cx="1.85534" cy="847.296" rx="1.85534" ry="3.09807" class="st12"/>
				</g>
				<g id="shape19-89" v:mID="19" v:groupContext="shape" transform="translate(0.0135951,-1.13687E-13)">
					<title>Sheet.19</title>
					<path d="M9.88 848.38 L8.82 850.16 a0.479828 0.801226 0 0 1 -0.678157 0 L0.28 837.08 a0.959656 1.60245 0 0 1
								 -0.00159943 -2.2648 L1.34 833.03 L9.88 847.25 a0.479828 0.801226 0 0 1 3.55271E-15 1.13507 L9.88
								 848.38 Z" class="st9"/>
				</g>
				<g id="shape20-91" v:mID="20" v:groupContext="shape" transform="translate(0,-11.5743)">
					<title>Sheet.20</title>
					<path d="M8.67 833.44 L9.74 835.21 a0.479828 0.801226 0 0 1 -7.10543E-15 1.1324 L1.35 850.39 L0.28 848.62 a0.959656
								 1.60245 0 0 1 -0.00159943 -2.26747 L7.99 833.44 a0.479828 0.801226 0 0 1 0.678157 0 L8.67 833.44
								 Z" class="st13"/>
				</g>
				<g id="shape21-93" v:mID="21" v:groupContext="shape" transform="translate(18.7673,-0.0240368)">
					<title>Sheet.21</title>
					<path d="M8.68 833.03 L9.74 834.81 a0.959656 1.60245 0 0 1 8.88178E-15 2.2648 L1.88 850.16 a0.479828 0.801226
								 0 0 1 -0.678157 0 L0.14 848.38 a0.479828 0.801226 0 0 1 -4.27436E-15 -1.1324 L8.68 833.03 Z"
							class="st9"/>
				</g>
				<g id="shape22-95" v:mID="22" v:groupContext="shape" transform="translate(18.9088,-11.5904)">
					<title>Sheet.22</title>
					<path d="M9.6 848.62 L8.53 850.39 L0.14 836.34 a0.479828 0.801226 0 0 1 -1.97065E-14 -1.13507 L1.22 833.42 a0.479828
								 0.801226 0 0 1 0.678157 0 L9.61 846.33 a0.959656 1.60245 0 0 1 -0.00319885 2.26747 L9.6 848.62 Z"
							class="st13"/>
				</g>
			</g>
		</g>
		<g id="group1003-97" transform="translate(452.693,-237.543)" v:mID="1003" v:groupContext="group">
			<v:userDefs>
				<v:ud v:nameU="msvStructureType" v:prompt="" v:val="VT4(Container)"/>
			</v:userDefs>
			<title>Resource Groups.1003</title>
			<g id="shape1004-98" v:mID="1004" v:groupContext="shape">
				<title>Rectangle</title>
				<v:userDefs>
					<v:ud v:nameU="visVersion" v:val="VT0(15):26"/>
				</v:userDefs>
				<path d="M0 850.39 L345.83 850.39 L345.83 488.82 L0 488.82 L0 850.39 Z" class="st1"/>
			</g>
			<g id="shape1005-100" v:mID="1005" v:groupContext="shape" transform="translate(45,-330.768)">
				<title>Rectangle.2</title>
				<desc>rg-xroad-prd</desc>
				<v:userDefs>
					<v:ud v:nameU="visVersion" v:val="VT0(15):26"/>
					<v:ud v:nameU="msvStructureType" v:prompt="" v:val="VT4(Header)"/>
					<v:ud v:nameU="imageOffset" v:prompt="" v:val="VT0(0.5):26"/>
					<v:ud v:nameU="borderOffset" v:prompt="" v:val="VT0(0.25):26"/>
					<v:ud v:nameU="topOffset" v:prompt="" v:val="VT0(0.15):26"/>
				</v:userDefs>
				<v:textBlock v:margins="rect(4,4,4,4)" v:tabSpace="42.5197"/>
				<v:textRect cx="145.913" cy="840.392" width="291.83" height="20.0036"/>
				<rect x="0" y="830.39" width="291.827" height="20.0036" class="st2"/>
				<text x="1.12em 1.469em" y="843.39" class="st3" v:langID="1033"><v:paragraph v:indentLeft="7.2" v:horizAlign="3"/><v:tabList/>rg<tspan
							x="1.939em" dy="0em" class="st4">-</tspan><tspan x="2.245em 2.679em 3.027em 3.555em 4.034em" dy="0em"
							class="st4">xroad</tspan><tspan x="4.559em" dy="0em" class="st4">-</tspan><tspan x="4.865em 5.391em 5.739em"
							dy="0em" class="st4">prd</tspan></text>			</g>
			<g id="group1006-107" transform="translate(7.2,-321.972)" v:mID="1006" v:groupContext="group">
				<title>Resource Groups</title>
				<desc>Resource Groups</desc>
				<g id="group1007-108" v:mID="1007" v:groupContext="group">
					<title>Sheet.1007</title>
					<g id="group1008-109" v:mID="1008" v:groupContext="group">
						<title>Sheet.1008</title>
						<g id="shape1009-110" v:mID="1009" v:groupContext="shape">
							<title>Sheet.1009</title>
							<path d="M0 846.91 a0.271059 0.287467 -180 0 0 0.135529 0.251533 L2.1 848.33 L5.42 850.36 a0.288 0.305433
										 -180 0 0 0.389647 -0.1078 L6.93 848.24 a0.271059 0.287467 -180 0 0 -0.101647 -0.3773 L2.93
										 845.53 a0.288 0.305433 0 0 1 -0.135529 -0.251533 L2.8 826.74 a0.271059 0.287467 0 0 1 0.135529
										 -0.251533 L6.83 824.15 a0.271059 0.287467 -180 0 0 0.101647 -0.3773 L5.81 821.76 a0.288
										 0.305433 -180 0 0 -0.389647 -0.143733 L2.17 823.61 L0.14 824.81 a0.271059 0.287467 -180
										 0 0 -0.135529 0.251533 L0 846.91 Z" class="st5"/>
						</g>
						<g id="shape1010-112" v:mID="1010" v:groupContext="shape" transform="translate(0,-23.8002)">
							<title>Sheet.1010</title>
							<path d="M2.78 850.39 L2.88 850.29 L6.78 847.95 a0.237176 0.251533 -180 0 0 0.101647 -0.3773 L5.76 845.56
										 a0.254118 0.2695 -180 0 0 -0.372706 -0.143733 L2.12 847.41 L0.1 848.62 C0.1 848.62 0.02
										 848.62 0 848.72 L1.52 849.64 L2.78 850.39 Z" class="st6"/>
						</g>
						<g id="shape1011-114" v:mID="1011" v:groupContext="shape" transform="translate(0.0169412,-0.0650351)">
							<title>Sheet.1011</title>
							<path d="M6.76 847.9 L2.86 845.56 a0.372706 0.395267 0 0 1 -0.118588 -0.1617 L0 847.19 L0.08 847.19 L2.03
										 848.36 L5.42 850.36 a0.254118 0.2695 -180 0 0 0.372706 -0.1078 L6.91 848.24 a0.237176 0.251533
										 -180 0 0 -0.152471 -0.341367 Z" class="st6"/>
						</g>
					</g>
					<g id="shape1012-116" v:mID="1012" v:groupContext="shape" transform="translate(21.8517,0)">
						<title>Sheet.1012</title>
						<path d="M6.95 846.91 a0.271059 0.287467 0 0 1 -0.135529 0.251533 L4.85 848.33 L1.53 850.36 a0.288 0.305433
									 0 0 1 -0.389647 -0.1078 L0.02 848.24 a0.271059 0.287467 0 0 1 0.101647 -0.3773 L4.02 845.53
									 a0.288 0.305433 -180 0 0 0.135529 -0.251533 L4.15 826.74 a0.271059 0.287467 -180 0 0 -0.135529
									 -0.251533 L0.12 824.15 a0.271059 0.287467 0 0 1 -0.101647 -0.3773 L1.14 821.76 a0.288 0.305433
									 0 0 1 0.389647 -0.143733 L4.78 823.58 L6.81 824.78 a0.271059 0.287467 0 0 1 0.135529 0.251533
									 L6.95 846.91 Z" class="st5"/>
					</g>
					<g id="shape1013-118" v:mID="1013" v:groupContext="shape" transform="translate(21.8874,-23.8002)">
						<title>Sheet.1013</title>
						<path d="M4.13 850.39 L4.03 850.29 L0.14 847.95 a0.237176 0.251533 0 0 1 -0.101647 -0.3773 L1.15 845.56 a0.254118
									 0.2695 0 0 1 0.372706 -0.143733 L4.79 847.38 L6.81 848.58 C6.81 848.58 6.81 848.58 6.91 848.69
									 L5.39 849.6 L4.13 850.39 Z" class="st6"/>
					</g>
					<g id="shape1014-120" v:mID="1014" v:groupContext="shape" transform="translate(21.9248,-0.0650351)">
						<title>Sheet.1014</title>
						<path d="M0.1 847.9 L4 845.56 a0.372706 0.395267 -180 0 0 0.118588 -0.1617 L6.86 847.19 L4.91 848.36 L1.52
									 850.36 a0.254118 0.2695 0 0 1 -0.372706 -0.1078 L0.03 848.24 a0.237176 0.251533 0 0 1 0.0677647
									 -0.341367 Z" class="st6"/>
					</g>
					<g id="shape1015-122" v:mID="1015" v:groupContext="shape" transform="translate(14.3831,-3.33619)">
						<title>Sheet.1015</title>
						<path d="M9.01 833.81 L9.01 844.84 L0 850.39 L0 839.34 L9.01 833.81 Z" class="st7"/>
					</g>
					<g id="shape1016-124" v:mID="1016" v:groupContext="shape" transform="translate(5.38729,-14.3677)">
						<title>Sheet.1016</title>
						<path d="M18.01 844.84 L9.01 850.39 L0 844.84 L9.01 839.29 L18.01 844.84 Z" class="st8"/>
					</g>
					<g id="shape1017-126" v:mID="1017" v:groupContext="shape" transform="translate(5.38729,-3.33619)">
						<title>Sheet.1017</title>
						<path d="M9 839.36 L9 850.39 L0 844.84 L0 833.81 L9 839.36 Z" class="st9"/>
					</g>
					<g id="shape1018-128" v:mID="1018" v:groupContext="shape" transform="translate(5.38729,-3.33619)">
						<title>Sheet.1018</title>
						<path d="M0 844.84 L9 839.34 L9 850.39 L0 844.84 Z" class="st8"/>
					</g>
					<g id="shape1019-130" v:mID="1019" v:groupContext="shape" transform="translate(14.3831,-3.33619)">
						<title>Sheet.1019</title>
						<path d="M9.01 844.84 L0 839.34 L0 850.39 L9.01 844.84 Z" class="st9"/>
					</g>
				</g>
			</g>
		</g>
		<g id="group1020-132" transform="translate(514.28,-282.009)" v:mID="1020" v:groupContext="group">
			<v:userDefs>
				<v:ud v:nameU="msvStructureType" v:prompt="" v:val="VT4(Container)"/>
			</v:userDefs>
			<title>Virtual Network.1020</title>
			<g id="shape1021-133" v:mID="1021" v:groupContext="shape">
				<title>Rectangle</title>
				<v:userDefs>
					<v:ud v:nameU="visVersion" v:val="VT0(15):26"/>
				</v:userDefs>
				<path d="M0 850.39 L234.5 850.39 L234.5 597.52 L0 597.52 L0 850.39 Z" class="st10"/>
			</g>
			<g id="shape1022-135" v:mID="1022" v:groupContext="shape" transform="translate(45,-219.674)">
				<title>Rectangle.28</title>
				<desc>Production Virtual Network</desc>
				<v:userDefs>
					<v:ud v:nameU="visVersion" v:val="VT0(15):26"/>
					<v:ud v:nameU="msvStructureType" v:prompt="" v:val="VT4(Header)"/>
					<v:ud v:nameU="imageOffset" v:prompt="" v:val="VT0(0.5):26"/>
					<v:ud v:nameU="borderOffset" v:prompt="" v:val="VT0(0.25):26"/>
					<v:ud v:nameU="topOffset" v:prompt="" v:val="VT0(0.15):26"/>
				</v:userDefs>
				<v:textBlock v:margins="rect(4,4,4,4)"/>
				<v:textRect cx="90.2502" cy="839.192" width="180.51" height="22.4037"/>
				<rect x="0" y="827.99" width="180.5" height="22.4037" class="st2"/>
				<text x="4" y="842.79" class="st3" v:langID="1033"><v:paragraph/><v:tabList/>Production Virtual Network</text>			</g>
			<g id="group1023-138" transform="translate(7.2,-213.278)" v:mID="1023" v:groupContext="group">
				<title>Virtual Networks</title>
				<g id="shape1024-139" v:mID="1024" v:groupContext="shape" transform="translate(18.5285,-11.326)">
					<title>Sheet.1024</title>
					<ellipse cx="1.85534" cy="847.296" rx="1.85534" ry="3.09807" class="st11"/>
				</g>
				<g id="shape1025-142" v:mID="1025" v:groupContext="shape" transform="translate(12.6106,-11.2993)">
					<title>Sheet.1025</title>
					<ellipse cx="1.85534" cy="847.296" rx="1.85534" ry="3.09807" class="st12"/>
				</g>
				<g id="shape1026-145" v:mID="1026" v:groupContext="shape" transform="translate(6.69276,-11.2993)">
					<title>Sheet.1026</title>
					<ellipse cx="1.85534" cy="847.296" rx="1.85534" ry="3.09807" class="st12"/>
				</g>
				<g id="shape1027-148" v:mID="1027" v:groupContext="shape" transform="translate(0.0135951,-1.13687E-13)">
					<title>Sheet.1027</title>
					<path d="M9.88 848.38 L8.82 850.16 a0.479828 0.801226 0 0 1 -0.678157 0 L0.28 837.08 a0.959656 1.60245 0 0 1
								 -0.00159943 -2.2648 L1.34 833.03 L9.88 847.25 a0.479828 0.801226 0 0 1 3.55271E-15 1.13507 L9.88
								 848.38 Z" class="st9"/>
				</g>
				<g id="shape1028-150" v:mID="1028" v:groupContext="shape" transform="translate(0,-11.5743)">
					<title>Sheet.1028</title>
					<path d="M8.67 833.44 L9.74 835.21 a0.479828 0.801226 0 0 1 -7.10543E-15 1.1324 L1.35 850.39 L0.28 848.62 a0.959656
								 1.60245 0 0 1 -0.00159943 -2.26747 L7.99 833.44 a0.479828 0.801226 0 0 1 0.678157 0 L8.67 833.44
								 Z" class="st13"/>
				</g>
				<g id="shape1029-152" v:mID="1029" v:groupContext="shape" transform="translate(18.7673,-0.0240368)">
					<title>Sheet.1029</title>
					<path d="M8.68 833.03 L9.74 834.81 a0.959656 1.60245 0 0 1 8.88178E-15 2.2648 L1.88 850.16 a0.479828 0.801226
								 0 0 1 -0.678157 0 L0.14 848.38 a0.479828 0.801226 0 0 1 -4.27436E-15 -1.1324 L8.68 833.03 Z"
							class="st9"/>
				</g>
				<g id="shape1030-154" v:mID="1030" v:groupContext="shape" transform="translate(18.9088,-11.5904)">
					<title>Sheet.1030</title>
					<path d="M9.6 848.62 L8.53 850.39 L0.14 836.34 a0.479828 0.801226 0 0 1 -1.97065E-14 -1.13507 L1.22 833.42 a0.479828
								 0.801226 0 0 1 0.678157 0 L9.61 846.33 a0.959656 1.60245 0 0 1 -0.00319885 2.26747 L9.6 848.62 Z"
							class="st13"/>
				</g>
			</g>
		</g>
		<g id="group74-156" transform="translate(452.693,-692.22)" v:mID="74" v:groupContext="group">
			<title>Azure Backup Center</title>
			<desc>Backup Vault</desc>
			<g id="shape75-157" v:mID="75" v:groupContext="shape" transform="translate(8.84063,-15.0506)">
				<title>Sheet.75</title>
				<path d="M27.16 843.84 A6.09832 6.6373 -180 0 0 21.86 837.45 A7.70095 8.38158 -180 0 0 13.94 829.44 A7.89451 8.59225
							 -180 0 0 6.4 835.04 A7.28468 7.92852 -180 0 0 0 842.67 A7.39083 8.04405 -180 0 0 7.65 850.39 A5.19085
							 5.64964 -180 0 0 8.32 850.36 L20.71 850.36 A1.2488 1.35917 -180 0 0 21.03 850.31 A6.17325 6.71885 -180
							 0 0 27.16 843.84 Z" class="st14"/>
			</g>
			<g id="group76-161" transform="translate(1.81855E-13,-2.36496)" v:mID="76" v:groupContext="group">
				<title>Sheet.76</title>
				<g id="shape77-162" v:mID="77" v:groupContext="shape" transform="translate(1.02301,-1.15756)">
					<title>Sheet.77</title>
					<path d="M20.57 838.11 L20.61 839.08 L21.5 839.21 A5.2866 5.75384 0 0 1 26.08 844.72 A5.36777 5.84218 0 0 1 20.78
								 850.38 L20.69 850.38 L20.62 850.39 L20.55 850.38 L6.81 850.38 A6.72688 7.32142 0 0 1 4.23 850 A7.02451
								 7.64536 0 0 1 1.93 848.54 A6.91836 7.52983 0 0 1 0.39 846.2 A6.32518 6.88422 0 0 1 1.55 838.92 A6.54997
								 7.12887 0 0 1 5.63 836.74 L6.28 836.65 L6.51 835.98 A7.25762 7.89907 0 0 1 9.19 832.22 A7.14731
								 7.77901 0 0 1 13.36 830.86 L13.41 830.86 A6.9475 7.56154 0 0 1 20.57 838.11 L20.57 838.11 Z"
							class="st15"/>
				</g>
				<g id="shape78-164" v:mID="78" v:groupContext="shape">
					<title>Sheet.78</title>
					<path d="M21.62 850.39 L21.44 850.35 L7.83 850.35 A7.78004 8.46766 0 0 1 4.92 849.91 A8.04437 8.75535 0 0 1 2.27
								 848.23 A7.9403 8.64208 0 0 1 0.46 845.51 A7.40956 8.06443 0 0 1 1.8 837.01 A7.59688 8.26831 0 0
								 1 6.55 834.45 L6.55 834.43 A8.24001 8.96829 0 0 1 9.62 830.13 A7.89451 8.59225 0 0 1 14.39 828.57
								 A8.01731 8.7259 0 0 1 22.62 836.9 L22.65 836.93 A6.3127 6.87063 0 0 1 28.13 843.52 A6.40636 6.97256
								 0 0 1 21.81 850.36 L21.62 850.39 ZM14.35 830.84 A6.11705 6.65769 -180 0 0 8.51 835.22 L8.06 836.54
								 L6.78 836.7 A5.52387 6.01208 -180 0 0 3.32 838.55 A5.29908 5.76743 -180 0 0 2.37 844.61 A5.82774
								 6.34281 -180 0 0 3.66 846.56 A5.82774 6.34281 -180 0 0 5.59 847.77 A5.66748 6.16839 -180 0 0 7.76
								 848.09 L21.66 848.09 L21.68 848.09 L21.7 848.09 A4.33543 4.7186 -180 0 0 26.05 843.52 A4.22095 4.59401
								 -180 0 0 22.37 839.18 L20.62 838.92 L20.54 836.99 A5.91516 6.43796 -180 0 0 14.46 830.84 L14.35
								 830.84 Z" class="st9"/>
				</g>
			</g>
			<g id="shape79-166" v:mID="79" v:groupContext="shape" transform="translate(4.36368,-7.43015)">
				<title>Sheet.79</title>
				<path d="M5.41 847.76 L5.41 847.08 L4.77 846.85 L4.61 846.38 L4.92 845.67 L4.92 845.58 L4.71 845.36 L4.48 845.08
							 L4.4 845.08 L3.77 845.43 L3.33 845.3 L3.07 844.54 L2.45 844.54 L2.24 845.24 L1.8 845.41 L1.07 845.04
							 L0.62 845.53 L0.62 845.61 L0.94 846.29 L0.76 846.77 L0 847.05 L0 847.73 L0.09 847.73 L0.75 847.98 L0.94
							 848.44 L0.59 849.23 L1.04 849.73 L1.12 849.73 L1.74 849.37 L2.18 849.56 L2.45 850.39 L3.08 850.39 L3.08
							 850.3 L3.31 849.56 L3.72 849.37 L4.46 849.74 L4.9 849.26 L4.9 849.17 L4.62 848.51 L4.75 848.04 L5.41
							 847.76 ZM2.77 848.38 a0.888731 0.967279 0 1 1 0.322607 -1.86207 a0.905382 0.985401 0 0 1 0.401698 0.355651
							 a0.888731 0.967279 0 0 1 0.149856 0.539139 a0.878324 0.955953 0 0 1 -0.832535 0.967279 L2.77 848.38
							 Z" class="st16"/>
			</g>
			<g id="shape80-168" v:mID="80" v:groupContext="shape" transform="translate(1.95635,1.13687E-13)">
				<title>Sheet.80</title>
				<path d="M5.15 848.04 A7.36169 8.01233 0 1 1 12.55 840.03 L10.32 840.03 A5.12425 5.57715 -180 1 0 5.19 845.6 L6.82
							 845.6 a0.116555 0.126856 -180 0 0 0.116555 -0.0362447 a0.131124 0.142713 -180 0 0 0.0333014 -0.0588976
							 a0.158182 0.172162 -180 0 0 3.55271E-14 -0.0679587 L6.97 843.46 a0.181076 0.19708 0 0 1 0.10823 -0.151774
							 a0.208134 0.226529 0 0 1 0.172751 0.0407752 L10.37 846.75 a0.17067 0.185754 0 0 1 1.95399E-14 0.110999
							 a0.164426 0.178958 0 0 1 -0.0561961 0.0951422 L7.19 850.35 a0.172751 0.188019 0 0 1 -0.0874162 0.0407752
							 a0.1561 0.169897 0 0 1 -0.0915788 -0.015857 a0.17067 0.185754 0 0 1 -0.0728468 -0.0656934 a0.154019
							 0.167632 0 0 1 -0.0291387 -0.0974075 L6.91 848.21 a0.1561 0.169897 -180 0 0 -0.0457894 -0.12006 a0.151938
							 0.165366 -180 0 0 -0.112392 -0.0498364 L5.15 848.04 L5.15 848.04 Z" class="st16"/>
			</g>
			<g id="shape74-170" v:mID="74" v:groupContext="groupContent">
				<v:textBlock v:margins="rect(0,0,0,0)" v:tabSpace="42.5197"/>
				<v:textRect cx="18" cy="855.796" width="72" height="10.8036"/>
				<text x="-5.91" y="858.5" class="st17" v:langID="1033"><v:paragraph v:horizAlign="1"/><v:tabList/>Backup Vault</text>			</g>
		</g>
		<g id="group81-172" transform="translate(358.316,-692.22)" v:mID="81" v:groupContext="group">
			<title>Azure Service Log Analytics</title>
			<desc>Log Analytics Workspace</desc>
			<g id="shape82-173" v:mID="82" v:groupContext="shape">
				<title>Sheet.82</title>
				<path d="M10.74 841.19 L19.94 841.19 L19.94 850.39 L10.74 850.39 L10.74 841.19 ZM1.28 850.39 L9.2 850.39 L9.2 841.19
							 L0 841.19 L0 849.12 A1.27811 1.27811 -180 0 0 1.28 850.39 ZM0 839.74 L9.2 839.74 L9.2 830.46 L0 830.46
							 L0 839.74 Z" class="st18"/>
			</g>
			<g id="shape83-177" v:mID="83" v:groupContext="shape" transform="translate(10.6509,-10.5444)">
				<title>Sheet.83</title>
				<path d="M12.67 824.94 A12.5467 12.5467 0 0 1 25.35 837.72 A12.5467 12.5467 0 0 1 12.67 850.39 L0 850.39 L0 837.61
							 A12.5467 12.5467 0 0 1 12.67 824.94 Z" class="st19"/>
			</g>
			<g id="shape84-181" v:mID="84" v:groupContext="shape" transform="translate(14.9964,-16.445)">
				<title>Sheet.84</title>
				<rect x="0" y="841.703" width="2.89704" height="8.69112" class="st15"/>
			</g>
			<g id="shape85-183" v:mID="85" v:groupContext="shape" transform="translate(20.7905,-16.445)">
				<title>Sheet.85</title>
				<rect x="0" y="844.6" width="2.89704" height="5.79408" class="st15"/>
			</g>
			<g id="shape86-185" v:mID="86" v:groupContext="shape" transform="translate(26.5846,-16.445)">
				<title>Sheet.86</title>
				<rect x="0" y="838.806" width="2.89704" height="11.5882" class="st15"/>
			</g>
			<g id="shape81-187" v:mID="81" v:groupContext="groupContent">
				<v:textBlock v:margins="rect(0,0,0,0)" v:tabSpace="42.5197"/>
				<v:textRect cx="18" cy="861.196" width="72" height="21.6036"/>
				<text x="-5.8" y="858.5" class="st17" v:langID="1033"><v:paragraph v:horizAlign="1"/><v:tabList/>Log Analytics <tspan
							x="-2.41" dy="1.2em" class="st4">Workspace</tspan></text>			</g>
		</g>
		<g id="group124-190" transform="translate(306.254,-10.7716)" v:mID="124" v:groupContext="group">
			<v:custProps>
				<v:cp v:nameU="ShapeClass" v:lbl="ShapeClass" v:prompt="" v:type="0" v:format="" v:sortKey="" v:invis="true"
						v:ask="false" v:langID="1033" v:cal="0" v:val="VT4(Location)"/>
				<v:cp v:nameU="ShapeType" v:lbl="ShapeType" v:prompt="" v:type="0" v:format="" v:sortKey="" v:invis="true"
						v:ask="false" v:langID="1033" v:cal="0" v:val="VT4(Cloud)"/>
			</v:custProps>
			<v:userDefs>
				<v:ud v:nameU="visVersion" v:prompt="" v:val="VT0(15):26"/>
				<v:ud v:nameU="ShapeClass" v:prompt="" v:val="VT0(5):26"/>
				<v:ud v:nameU="SolSH" v:prompt="" v:val="VT15({BF0433D9-CD73-4EB5-8390-8653BE590246}):41"/>
				<v:ud v:nameU="visLegendShape" v:prompt="" v:val="VT0(2):26"/>
			</v:userDefs>
			<title>Cloud</title>
			<desc>Internet</desc>
			<g id="shape125-191" v:mID="125" v:groupContext="shape" transform="translate(0,-50.0285)">
				<title>Sheet.125</title>
				<path d="M202.32 752.58 C201.06 741.5 190.99 732.83 178.61 732.83 C175.09 732.83 171.79 733.57 168.78 734.81 C162.95
							 723.92 150.91 715.95 128.29 716.6 C98.91 717.43 64.12 730.65 57.12 754.12 C48.75 755.72 43.36 760.26
							 40.14 766.31 C38.84 766.18 37.52 766.1 36.15 766.1 C16.81 766.1 1.95 780.21 1.1 797.6 C0 820.09 16.8
							 829.1 36.15 829.1 C38.93 829.1 41.59 828.79 44.18 828.24 C48.2 830.86 53.44 832.48 59.19 832.48 C64.5
							 832.48 69.39 831.1 73.28 828.8 C80.72 841.48 96.04 850.39 113.69 849.35 C132.27 848.27 143.42 844.31
							 150.01 838.19 C150.42 838.15 150.8 838.15 151.23 838.1 C172 835.44 181.13 830.05 184.07 821.19 C184.62
							 821.2 185.18 821.22 185.73 821.22 C212.68 821.22 234.5 813.35 234.5 785.78 C234.5 770.47 221.04 757.53
							 202.32 752.58 Z" class="st20"/>
			</g>
			<g id="shape124-193" v:mID="124" v:groupContext="groupContent">
				<v:textBlock v:margins="rect(4,4,4,4)" v:tabSpace="42.5197"/>
				<v:textRect cx="114.295" cy="822.047" width="43.43" height="20.0036"/>
				<text x="97.71" y="825.05" class="st21" v:langID="1033"><v:paragraph v:horizAlign="1"/><v:tabList/>Internet</text>			</g>
		</g>
		<g id="group103-195" transform="translate(262.454,-442.114)" v:mID="103" v:groupContext="group">
			<title>Virtual Machine.103</title>
			<desc>vm-xroad-securityserver-1-dev</desc>
			<g id="shape104-196" v:mID="104" v:groupContext="shape" transform="translate(0,-9.62194)">
				<title>Sheet.104</title>
				<v:userDefs>
					<v:ud v:nameU="msvDisableCustomConnectionPoints" v:prompt="" v:val="VT0(1):5"/>
				</v:userDefs>
				<path d="M0 849.15 A1.15203 1.24693 -180 0 0 1.15 850.39 L33.41 850.39 A1.15203 1.24693 -180 0 0 34.56 849.15 L34.56
							 826.7 A1.15203 1.24693 -180 0 0 33.41 825.46 L1.15 825.46 A1.15203 1.24693 -180 0 0 -0 826.7 L0 849.15
							 Z" class="st22"/>
			</g>
			<g id="shape105-200" v:mID="105" v:groupContext="shape" transform="translate(17.28,-14.8174)">
				<title>Sheet.105</title>
				<v:userDefs>
					<v:ud v:nameU="msvDisableCustomConnectionPoints" v:prompt="" v:val="VT0(1):5"/>
				</v:userDefs>
				<path d="M5.76 839.48 L5.76 846.74 L0 850.39 L0 843.12 L5.76 839.48 Z" class="st9"/>
			</g>
			<g id="shape106-202" v:mID="106" v:groupContext="shape" transform="translate(11.52,-22.0702)">
				<title>Sheet.106</title>
				<v:userDefs>
					<v:ud v:nameU="msvDisableCustomConnectionPoints" v:prompt="" v:val="VT0(1):5"/>
				</v:userDefs>
				<path d="M11.52 846.74 L5.76 850.39 L0 846.74 L5.76 843.1 L11.52 846.74 Z" class="st23"/>
			</g>
			<g id="shape107-204" v:mID="107" v:groupContext="shape" transform="translate(11.52,-14.8174)">
				<title>Sheet.107</title>
				<v:userDefs>
					<v:ud v:nameU="msvDisableCustomConnectionPoints" v:prompt="" v:val="VT0(1):5"/>
				</v:userDefs>
				<path d="M5.76 843.14 L5.76 850.39 L0 846.74 L0 839.48 L5.76 843.14 Z" class="st8"/>
			</g>
			<g id="shape108-206" v:mID="108" v:groupContext="shape" transform="translate(11.52,-14.8174)">
				<title>Sheet.108</title>
				<v:userDefs>
					<v:ud v:nameU="msvDisableCustomConnectionPoints" v:prompt="" v:val="VT0(1):5"/>
				</v:userDefs>
				<path d="M0 846.74 L5.76 843.12 L5.76 850.39 L0 846.74 Z" class="st23"/>
			</g>
			<g id="shape109-208" v:mID="109" v:groupContext="shape" transform="translate(17.28,-14.8174)">
				<title>Sheet.109</title>
				<v:userDefs>
					<v:ud v:nameU="msvDisableCustomConnectionPoints" v:prompt="" v:val="VT0(1):5"/>
				</v:userDefs>
				<path d="M5.76 846.74 L0 843.12 L0 850.39 L5.76 846.74 Z" class="st8"/>
			</g>
			<g id="shape110-210" v:mID="110" v:groupContext="shape" transform="translate(8.64,0)">
				<title>Sheet.110</title>
				<v:userDefs>
					<v:ud v:nameU="msvDisableCustomConnectionPoints" v:prompt="" v:val="VT0(1):5"/>
				</v:userDefs>
				<path d="M15.57 848.32 C12.15 847.73 12.02 845.07 12.02 840.77 L5.24 840.77 C5.24 845.07 5.13 847.73 1.71 848.32
							 A1.92 2.07817 -180 0 0 0 850.39 L17.28 850.39 A1.92 2.07817 -180 0 0 15.57 848.32 Z" class="st24"/>
			</g>
			<g id="shape103-214" v:mID="103" v:groupContext="groupContent">
				<v:textBlock v:margins="rect(0,0,0,0)" v:tabSpace="42.5197"/>
				<v:textRect cx="17.0419" cy="866.596" width="113.96" height="10.8036"/>
				<text x="-39.24" y="869.3" class="st17" v:langID="1033"><v:paragraph v:horizAlign="1"/><v:tabList/>vm-xroad-securityserver-1-dev</text>			</g>
		</g>
		<g id="group117-216" transform="translate(154.655,-331.115)" v:mID="117" v:groupContext="group">
			<title>Azure Database PostgreSQL Server.117</title>
			<desc>PostgreSQL Server</desc>
			<g id="shape118-217" v:mID="118" v:groupContext="shape">
				<title>Sheet.118</title>
				<v:userDefs>
					<v:ud v:nameU="msvDisableCustomConnectionPoints" v:prompt="" v:val="VT0(1):5"/>
				</v:userDefs>
				<path d="M15.84 824.22 C7.09 824.22 0 822.1 0 819.31 L0 845.48 C0 848.17 6.97 850.35 15.62 850.39 L15.84 850.39 C24.59
							 850.39 31.68 848.28 31.68 845.48 L31.68 819.31 C31.68 822.02 24.59 824.22 15.84 824.22 Z" class="st25"/>
			</g>
			<g id="shape119-221" v:mID="119" v:groupContext="shape" transform="translate(0,-26.1741)">
				<title>Sheet.119</title>
				<v:userDefs>
					<v:ud v:nameU="msvDisableCustomConnectionPoints" v:prompt="" v:val="VT0(1):5"/>
				</v:userDefs>
				<path d="M31.68 845.48 C31.68 848.19 24.59 850.39 15.84 850.39 C7.09 850.39 0 848.28 0 845.48 C0 842.69 7.09 840.57
							 15.84 840.57 C24.59 840.57 31.68 842.69 31.68 845.48 Z" class="st26"/>
			</g>
			<g id="shape120-223" v:mID="120" v:groupContext="shape" transform="translate(3.682,-28.3553)">
				<title>Sheet.120</title>
				<v:userDefs>
					<v:ud v:nameU="msvDisableCustomConnectionPoints" v:prompt="" v:val="VT0(1):5"/>
				</v:userDefs>
				<path d="M24.29 847.26 C24.29 849 18.85 850.39 12.16 850.39 C5.46 850.39 0 849 0 847.28 C0 845.57 5.44 844.15 12.16
							 844.15 C18.88 844.15 24.29 845.54 24.29 847.26 Z" class="st9"/>
			</g>
			<g id="shape121-225" v:mID="121" v:groupContext="shape" transform="translate(6.20256,-28.3553)">
				<title>Sheet.121</title>
				<v:userDefs>
					<v:ud v:nameU="msvDisableCustomConnectionPoints" v:prompt="" v:val="VT0(1):5"/>
				</v:userDefs>
				<path d="M9.64 848.04 A28.7888 24.6706 -180 0 0 0 849.25 A28.4922 24.4165 -180 0 0 9.64 850.39 A28.344 24.2894 -180
							 0 0 19.25 849.17 A29.4807 25.2635 -180 0 0 9.64 848.04 Z" class="st27"/>
			</g>
			<g id="shape122-227" v:mID="122" v:groupContext="shape" transform="translate(4.71988,-3.74824)">
				<title>Sheet.122</title>
				<v:userDefs>
					<v:ud v:nameU="msvDisableCustomConnectionPoints" v:prompt="" v:val="VT0(1):5"/>
				</v:userDefs>
				<path d="M18.53 836.14 L18.53 837.03 A12.6522 10.8424 -180 0 0 18.34 838.37 C18.34 838.62 18.34 839 18.46 839.34
							 C18.58 839.68 18.46 839.91 18.46 840.1 A4.15151 3.55765 0 0 1 17.84 841.92 a1.06259 0.910588 -180 0
							 0 -3.55271E-15 0.148235 L18.09 842.33 A26.0705 22.3412 -180 0 0 20.71 837.29 C21.4 835.27 21.47 833.83
							 20.93 833.22 A6.37554 5.46353 -180 0 0 14.31 831.4 A8.13005 6.96706 0 0 1 16.56 832.82 A5.6342 4.82824
							 0 0 1 18.53 836.14 ZM17.77 836.31 A2.84181 2.43529 -180 0 0 15.82 836.5 C15.1 836.88 15.32 837.67 15.82
							 838.62 A19.2007 16.4541 -180 0 0 16.68 840.42 L16.9 840.76 C17.03 840.93 17.1 841.08 17.17 841.18 L17.37
							 841.46 A3.16306 2.71059 -180 0 0 17.82 840.08 A7.06746 6.05647 -180 0 0 17.82 839.38 C17.82 839.02 17.82
							 838.62 17.69 838.34 A15.0739 12.9176 0 0 1 17.89 836.88 A1.91019 1.63694 0 0 1 17.87 836.25 L17.77 836.31
							 ZM17.03 837.18 a0.988456 0.847059 0 0 1 -0.444805 0.211765 a0.815476 0.698824 0 0 1 -0.345959 0 a0.568362
							 0.487059 0 0 1 -0.17298 -0.402353 C16.06 836.84 16.33 836.71 16.66 836.67 L17.12 836.67 C17.12 836.67
							 17.35 836.67 17.35 836.84 a0.494228 0.423529 0 0 1 -0.222402 0.275294 L17.03 837.18 ZM5.44 839.06 L5.44
							 838.7 A2.47114 2.11765 -180 0 0 5.44 838.34 A13.7148 11.7529 0 0 1 5.44 836.23 A12.8993 11.0541 0 0
							 1 6.18 833.9 A5.95544 5.10353 0 0 1 7.61 831.91 A11.812 10.1224 -180 0 0 4.28 831.48 A4.62103 3.96 -180
							 0 0 1.56 832.12 A4.94228 4.23529 -180 0 0 0 835.97 A30.3209 25.9835 -180 0 0 1.24 840.72 C2.08 843.13
							 3.04 844.61 3.88 844.85 C4.25 844.95 4.65 844.85 5.04 844.4 C5.73 843.68 6.38 843.07 6.75 842.71 A4.64574
							 3.98118 0 0 1 5.54 839 L5.44 839.06 ZM6.08 839.91 A5.38708 4.61647 -180 0 0 6.23 841.1 A3.70671 3.17647
							 -180 0 0 6.87 842.03 A2.64412 2.26588 -180 0 0 7.73 842.56 A2.69354 2.30824 -180 0 0 8.7 842.73 C8.7
							 842.37 9.04 841.92 9.27 841.46 A10.7495 9.21176 -180 0 0 9.79 840.21 A16.3342 13.9976 -180 0 0 9.79
							 837.86 C9.79 837.67 9.79 837.45 9.64 837.22 a1.11201 0.952941 -180 0 0 -0.296537 -0.571765 A1.63095
							 1.39765 -180 0 0 8.65 836.31 L8.15 836.31 A3.85498 3.30353 -180 0 0 6.97 836.61 A4.94228 4.23529 -180
							 0 0 6.18 837.01 L6.18 838.53 A2.12518 1.82118 0 0 1 6.18 838.85 L6.18 839.68 L6.08 839.91 ZM7.71 837.07
							 a1.13672 0.974118 0 0 1 0.691919 0 A1.48268 1.27059 0 0 1 8.87 837.2 C9.09 837.2 9.12 837.43 9.09 837.5
							 a0.914321 0.783529 0 0 1 -0.296537 0.275294 a0.741342 0.635294 0 0 1 -0.148268 -0.0847059 a0.840187
							 0.72 0 0 1 -0.691919 -0.592941 L7.71 837.07 ZM9.54 843.43 a0.568362 0.487059 -180 0 0 -0.321248 0.127059
							 L8.87 843.91 C8.45 844.36 8.28 844.51 7.07 844.72 A1.28499 1.10118 -180 0 0 6.42 844.93 A1.43326 1.22824
							 -180 0 0 7.02 845.16 A2.91594 2.49882 -180 0 0 8.8 845.16 A4.20094 3.6 -180 0 0 9.76 844.61 A1.50739
							 1.29176 -180 0 0 10.26 843.96 a0.88961 0.762353 -180 0 0 -0.247114 -0.592941 a0.370671 0.317647 -180
							 0 0 -0.370671 -0.0423529 L9.54 843.43 ZM20.93 843.43 A4.02796 3.45176 0 0 1 18.14 843.43 a0.543651 0.465882
							 -180 0 0 -0.345959 0 a0.741342 0.635294 -180 0 0 -0.420094 0.296471 A2.69354 2.30824 -180 0 0 17.37
							 844.38 A4.44805 3.81176 -180 0 0 20.09 844.17 A3.36075 2.88 -180 0 0 21.28 843.45 L20.93 843.43 ZM15
							 838.89 C14.65 838.03 14.16 836.78 15.44 836.01 A3.33604 2.85882 0 0 1 17.64 835.7 A7.85822 6.73412 -180
							 0 0 16.06 833.26 L15.82 833.05 L15.67 832.92 a0.840187 0.72 -180 0 0 -0.148268 -0.127059 A5.78246 4.95529
							 -180 0 0 13.86 831.91 A6.4991 5.56941 -180 0 0 11.12 831.44 A3.75613 3.21882 -180 0 0 9.39 831.67 A4.37392
							 3.74824 -180 0 0 8.65 831.91 A5.18939 4.44706 -180 0 0 6.82 834.02 A14.4315 12.3671 -180 0 0 6.3 836.14
							 A4.10209 3.51529 0 0 1 8.77 835.65 A2.07576 1.77882 0 0 1 10.68 837.58 A17.9405 15.3741 0 0 1 10.68
							 840.27 A9.56331 8.19529 0 0 1 10.11 841.61 C9.96 841.97 9.76 842.35 9.66 842.64 A1.23557 1.05882 0 0
							 1 10.6 842.94 A1.63095 1.39765 0 0 1 11.07 844.06 L11.12 844.06 L11.12 844.57 A16.186 13.8706 -180 0
							 0 11.71 849.74 A1.33441 1.14353 -180 0 0 12.31 850.18 A1.48268 1.27059 -180 0 0 13.07 850.39 A3.21248
							 2.75294 -180 0 0 15.54 849.67 A2.5947 2.22353 -180 0 0 16.26 848.28 C16.43 847.32 16.8 844.68 16.85
							 844.04 A1.77922 1.52471 0 0 1 17.08 843.11 A1.55682 1.33412 0 0 1 17.74 842.6 A13.2453 11.3506 0 0 1
							 15.1 838.77 L15 838.89 Z" class="st28"/>
			</g>
			<g id="shape117-229" v:mID="117" v:groupContext="groupContent">
				<v:textBlock v:margins="rect(0,0,0,0)" v:tabSpace="42.5197"/>
				<v:textRect cx="15.84" cy="855.796" width="72" height="10.8036"/>
				<text x="-17.77" y="858.5" class="st17" v:langID="1033"><v:paragraph v:horizAlign="1"/><v:tabList/>PostgreSQL Server</text>			</g>
		</g>
		<g id="group131-231" transform="translate(265.334,-332.555)" v:mID="131" v:groupContext="group">
			<title>Network Security Groups.131</title>
			<desc>Network Security Group</desc>
			<g id="shape132-232" v:mID="132" v:groupContext="shape">
				<title>Sheet.132</title>
				<v:userDefs>
					<v:ud v:nameU="msvDisableCustomConnectionPoints" v:prompt="" v:val="VT0(1):5"/>
				</v:userDefs>
				<path d="M28.8 831.96 C28.8 841.26 17.35 848.75 14.87 850.26 a0.9 0.883319 0 0 1 -0.93913 0 C11.45 848.75 0 841.26
							 0 831.96 L0 820.79 a0.9 0.883319 0 0 1 0.880435 -0.883319 C9.78 819.67 7.73 815.83 14.4 815.83 C21.07
							 815.83 19.02 819.67 27.92 819.9 a0.9 0.883319 0 0 1 0.880435 0.883319 L28.8 831.96 Z" class="st16"/>
			</g>
			<g id="shape133-234" v:mID="133" v:groupContext="shape" transform="translate(1.19348,-1.43449)">
				<title>Sheet.133</title>
				<v:userDefs>
					<v:ud v:nameU="msvDisableCustomConnectionPoints" v:prompt="" v:val="VT0(1):5"/>
				</v:userDefs>
				<path d="M26.41 833.49 C26.41 842.02 15.93 848.86 13.64 850.28 a0.841304 0.825711 0 0 1 -0.86087 0 C10.49 848.89
							 0 842.02 0 833.49 L0 823.24 a0.821739 0.806509 0 0 1 0.802174 -0.806509 C8.96 822.22 7.08 818.71 13.21
							 818.71 C19.33 818.71 17.45 822.22 25.61 822.43 a0.821739 0.806509 0 0 1 0.802174 0.806509 L26.41 833.49
							 Z" class="st29"/>
			</g>
			<g id="shape134-236" v:mID="134" v:groupContext="shape" transform="translate(1.25217,-1.43553)">
				<title>Sheet.134</title>
				<v:userDefs>
					<v:ud v:nameU="msvDisableCustomConnectionPoints" v:prompt="" v:val="VT0(1):5"/>
				</v:userDefs>
				<path d="M13.15 834.55 L13.15 818.71 C19.27 818.71 17.39 822.22 25.55 822.43 a0.841304 0.825711 0 0 1 0.802174 0.825711
							 L26.35 833.51 A9.56739 9.39007 0 0 1 26.35 834.55 L13.15 834.55 ZM13.15 834.55 L0 834.55 C0.78 842.58
							 10.53 848.95 12.72 850.28 a0.763043 0.748901 -180 0 0 0.352174 0.115216 L13.15 850.39 L13.15 834.55
							 Z" class="st30"/>
			</g>
			<g id="shape135-240" v:mID="135" v:groupContext="shape" transform="translate(1.23758,-1.43553)">
				<title>Sheet.135</title>
				<v:userDefs>
					<v:ud v:nameU="msvDisableCustomConnectionPoints" v:prompt="" v:val="VT0(1):5"/>
				</v:userDefs>
				<path d="M0.76 822.43 C8.92 822.22 7.04 818.71 13.16 818.71 L13.16 834.55 L0.01 834.55 A9.56739 9.39007 0 0 1 0.01
							 833.51 L0.01 823.26 a0.841304 0.825711 0 0 1 0.743478 -0.825711 ZM26.31 834.55 L13.16 834.55 L13.16
							 850.39 a0.763043 0.748901 -180 0 0 0.352174 -0.115216 C15.78 848.95 25.53 842.58 26.31 834.55 Z"
						class="st9"/>
			</g>
			<g id="shape131-242" v:mID="131" v:groupContext="groupContent">
				<v:textBlock v:margins="rect(0,0,0,0)" v:tabSpace="42.5197"/>
				<v:textRect cx="14.4" cy="861.196" width="72" height="21.6036"/>
				<text x="-17.19" y="858.5" class="st17" v:langID="1033"><v:paragraph v:horizAlign="1"/><v:tabList/>Network Security <tspan
							x="2.89" dy="1.2em" class="st4">Group</tspan></text>			</g>
		</g>
		<g id="shape1000-245" v:mID="1000" v:groupContext="shape" v:layerMember="0" transform="translate(309.301,-123.101)">
			<title>Dynamic connector.1000</title>
			<path d="M0 850.39 L-29.57 850.39 L-29.57 669.58" class="st31"/>
		</g>
		<g id="shape1001-251" v:mID="1001" v:groupContext="shape" v:layerMember="0" transform="translate(272.67,-367.115)">
			<title>Dynamic connector.1001</title>
			<path d="M7.06 850.39 L7.06 837.72 L7.11 837.72 L7.11 805.59" class="st31"/>
		</g>
		<g id="group1031-256" transform="translate(558.859,-442.114)" v:mID="1031" v:groupContext="group">
			<title>Virtual Machine.1031</title>
			<desc>vm-xroad-securityserver-1-prd</desc>
			<g id="shape1032-257" v:mID="1032" v:groupContext="shape" transform="translate(0,-9.62194)">
				<title>Sheet.1032</title>
				<v:userDefs>
					<v:ud v:nameU="msvDisableCustomConnectionPoints" v:prompt="" v:val="VT0(1):5"/>
				</v:userDefs>
				<path d="M0 849.15 A1.15203 1.24693 -180 0 0 1.15 850.39 L33.41 850.39 A1.15203 1.24693 -180 0 0 34.56 849.15 L34.56
							 826.7 A1.15203 1.24693 -180 0 0 33.41 825.46 L1.15 825.46 A1.15203 1.24693 -180 0 0 -0 826.7 L0 849.15
							 Z" class="st22"/>
			</g>
			<g id="shape1033-260" v:mID="1033" v:groupContext="shape" transform="translate(17.28,-14.8174)">
				<title>Sheet.1033</title>
				<v:userDefs>
					<v:ud v:nameU="msvDisableCustomConnectionPoints" v:prompt="" v:val="VT0(1):5"/>
				</v:userDefs>
				<path d="M5.76 839.48 L5.76 846.74 L0 850.39 L0 843.12 L5.76 839.48 Z" class="st9"/>
			</g>
			<g id="shape1034-262" v:mID="1034" v:groupContext="shape" transform="translate(11.52,-22.0702)">
				<title>Sheet.1034</title>
				<v:userDefs>
					<v:ud v:nameU="msvDisableCustomConnectionPoints" v:prompt="" v:val="VT0(1):5"/>
				</v:userDefs>
				<path d="M11.52 846.74 L5.76 850.39 L0 846.74 L5.76 843.1 L11.52 846.74 Z" class="st23"/>
			</g>
			<g id="shape1035-264" v:mID="1035" v:groupContext="shape" transform="translate(11.52,-14.8174)">
				<title>Sheet.1035</title>
				<v:userDefs>
					<v:ud v:nameU="msvDisableCustomConnectionPoints" v:prompt="" v:val="VT0(1):5"/>
				</v:userDefs>
				<path d="M5.76 843.14 L5.76 850.39 L0 846.74 L0 839.48 L5.76 843.14 Z" class="st8"/>
			</g>
			<g id="shape1036-266" v:mID="1036" v:groupContext="shape" transform="translate(11.52,-14.8174)">
				<title>Sheet.1036</title>
				<v:userDefs>
					<v:ud v:nameU="msvDisableCustomConnectionPoints" v:prompt="" v:val="VT0(1):5"/>
				</v:userDefs>
				<path d="M0 846.74 L5.76 843.12 L5.76 850.39 L0 846.74 Z" class="st23"/>
			</g>
			<g id="shape1037-268" v:mID="1037" v:groupContext="shape" transform="translate(17.28,-14.8174)">
				<title>Sheet.1037</title>
				<v:userDefs>
					<v:ud v:nameU="msvDisableCustomConnectionPoints" v:prompt="" v:val="VT0(1):5"/>
				</v:userDefs>
				<path d="M5.76 846.74 L0 843.12 L0 850.39 L5.76 846.74 Z" class="st8"/>
			</g>
			<g id="shape1038-270" v:mID="1038" v:groupContext="shape" transform="translate(8.64,0)">
				<title>Sheet.1038</title>
				<v:userDefs>
					<v:ud v:nameU="msvDisableCustomConnectionPoints" v:prompt="" v:val="VT0(1):5"/>
				</v:userDefs>
				<path d="M15.57 848.32 C12.15 847.73 12.02 845.07 12.02 840.77 L5.24 840.77 C5.24 845.07 5.13 847.73 1.71 848.32
							 A1.92 2.07817 -180 0 0 0 850.39 L17.28 850.39 A1.92 2.07817 -180 0 0 15.57 848.32 Z" class="st24"/>
			</g>
			<g id="shape1031-273" v:mID="1031" v:groupContext="groupContent">
				<v:textBlock v:margins="rect(0,0,0,0)" v:tabSpace="42.5197"/>
				<v:textRect cx="18.9837" cy="866.596" width="87.03" height="21.6036"/>
				<text x="0.19" y="863.9" class="st17" v:langID="1033"><v:paragraph v:horizAlign="1"/><v:tabList/>vm-xroad-<tspan
							x="-18.17" dy="1.2em" class="st4">securityserver</tspan>-1-prd</text>			</g>
		</g>
		<g id="group1039-276" transform="translate(669.265,-442.114)" v:mID="1039" v:groupContext="group">
			<title>Virtual Machine.1039</title>
			<desc>vm-xroad-securityserver-2-prd</desc>
			<g id="shape1040-277" v:mID="1040" v:groupContext="shape" transform="translate(0,-9.62194)">
				<title>Sheet.1040</title>
				<v:userDefs>
					<v:ud v:nameU="msvDisableCustomConnectionPoints" v:prompt="" v:val="VT0(1):5"/>
				</v:userDefs>
				<path d="M0 849.15 A1.15203 1.24693 -180 0 0 1.15 850.39 L33.41 850.39 A1.15203 1.24693 -180 0 0 34.56 849.15 L34.56
							 826.7 A1.15203 1.24693 -180 0 0 33.41 825.46 L1.15 825.46 A1.15203 1.24693 -180 0 0 -0 826.7 L0 849.15
							 Z" class="st22"/>
			</g>
			<g id="shape1041-280" v:mID="1041" v:groupContext="shape" transform="translate(17.28,-14.8174)">
				<title>Sheet.1041</title>
				<v:userDefs>
					<v:ud v:nameU="msvDisableCustomConnectionPoints" v:prompt="" v:val="VT0(1):5"/>
				</v:userDefs>
				<path d="M5.76 839.48 L5.76 846.74 L0 850.39 L0 843.12 L5.76 839.48 Z" class="st9"/>
			</g>
			<g id="shape1042-282" v:mID="1042" v:groupContext="shape" transform="translate(11.52,-22.0702)">
				<title>Sheet.1042</title>
				<v:userDefs>
					<v:ud v:nameU="msvDisableCustomConnectionPoints" v:prompt="" v:val="VT0(1):5"/>
				</v:userDefs>
				<path d="M11.52 846.74 L5.76 850.39 L0 846.74 L5.76 843.1 L11.52 846.74 Z" class="st23"/>
			</g>
			<g id="shape1043-284" v:mID="1043" v:groupContext="shape" transform="translate(11.52,-14.8174)">
				<title>Sheet.1043</title>
				<v:userDefs>
					<v:ud v:nameU="msvDisableCustomConnectionPoints" v:prompt="" v:val="VT0(1):5"/>
				</v:userDefs>
				<path d="M5.76 843.14 L5.76 850.39 L0 846.74 L0 839.48 L5.76 843.14 Z" class="st8"/>
			</g>
			<g id="shape1044-286" v:mID="1044" v:groupContext="shape" transform="translate(11.52,-14.8174)">
				<title>Sheet.1044</title>
				<v:userDefs>
					<v:ud v:nameU="msvDisableCustomConnectionPoints" v:prompt="" v:val="VT0(1):5"/>
				</v:userDefs>
				<path d="M0 846.74 L5.76 843.12 L5.76 850.39 L0 846.74 Z" class="st23"/>
			</g>
			<g id="shape1045-288" v:mID="1045" v:groupContext="shape" transform="translate(17.28,-14.8174)">
				<title>Sheet.1045</title>
				<v:userDefs>
					<v:ud v:nameU="msvDisableCustomConnectionPoints" v:prompt="" v:val="VT0(1):5"/>
				</v:userDefs>
				<path d="M5.76 846.74 L0 843.12 L0 850.39 L5.76 846.74 Z" class="st8"/>
			</g>
			<g id="shape1046-290" v:mID="1046" v:groupContext="shape" transform="translate(8.64,0)">
				<title>Sheet.1046</title>
				<v:userDefs>
					<v:ud v:nameU="msvDisableCustomConnectionPoints" v:prompt="" v:val="VT0(1):5"/>
				</v:userDefs>
				<path d="M15.57 848.32 C12.15 847.73 12.02 845.07 12.02 840.77 L5.24 840.77 C5.24 845.07 5.13 847.73 1.71 848.32
							 A1.92 2.07817 -180 0 0 0 850.39 L17.28 850.39 A1.92 2.07817 -180 0 0 15.57 848.32 Z" class="st24"/>
			</g>
			<g id="shape1039-293" v:mID="1039" v:groupContext="groupContent">
				<v:textBlock v:margins="rect(0,0,0,0)" v:tabSpace="42.5197"/>
				<v:textRect cx="17.2858" cy="866.596" width="93.55" height="21.6036"/>
				<text x="-28.71" y="863.9" class="st17" v:langID="1033"><v:paragraph v:horizAlign="1"/><v:tabList/>vm-xroad-securityserver-<tspan
							x="7.33" dy="1.2em" class="st4">2</tspan>-prd</text>			</g>
		</g>
		<g id="group1047-296" transform="translate(540.567,-332.929)" v:mID="1047" v:groupContext="group">
			<title>Azure Database PostgreSQL Server.1047</title>
			<desc>PostgreSQL Server</desc>
			<g id="shape1048-297" v:mID="1048" v:groupContext="shape">
				<title>Sheet.1048</title>
				<v:userDefs>
					<v:ud v:nameU="msvDisableCustomConnectionPoints" v:prompt="" v:val="VT0(1):5"/>
				</v:userDefs>
				<path d="M15.84 824.22 C7.09 824.22 0 822.1 0 819.31 L0 845.48 C0 848.17 6.97 850.35 15.62 850.39 L15.84 850.39 C24.59
							 850.39 31.68 848.28 31.68 845.48 L31.68 819.31 C31.68 822.02 24.59 824.22 15.84 824.22 Z" class="st25"/>
			</g>
			<g id="shape1049-300" v:mID="1049" v:groupContext="shape" transform="translate(0,-26.1741)">
				<title>Sheet.1049</title>
				<v:userDefs>
					<v:ud v:nameU="msvDisableCustomConnectionPoints" v:prompt="" v:val="VT0(1):5"/>
				</v:userDefs>
				<path d="M31.68 845.48 C31.68 848.19 24.59 850.39 15.84 850.39 C7.09 850.39 0 848.28 0 845.48 C0 842.69 7.09 840.57
							 15.84 840.57 C24.59 840.57 31.68 842.69 31.68 845.48 Z" class="st26"/>
			</g>
			<g id="shape1050-302" v:mID="1050" v:groupContext="shape" transform="translate(3.682,-28.3553)">
				<title>Sheet.1050</title>
				<v:userDefs>
					<v:ud v:nameU="msvDisableCustomConnectionPoints" v:prompt="" v:val="VT0(1):5"/>
				</v:userDefs>
				<path d="M24.29 847.26 C24.29 849 18.85 850.39 12.16 850.39 C5.46 850.39 0 849 0 847.28 C0 845.57 5.44 844.15 12.16
							 844.15 C18.88 844.15 24.29 845.54 24.29 847.26 Z" class="st9"/>
			</g>
			<g id="shape1051-304" v:mID="1051" v:groupContext="shape" transform="translate(6.20256,-28.3553)">
				<title>Sheet.1051</title>
				<v:userDefs>
					<v:ud v:nameU="msvDisableCustomConnectionPoints" v:prompt="" v:val="VT0(1):5"/>
				</v:userDefs>
				<path d="M9.64 848.04 A28.7888 24.6706 -180 0 0 0 849.25 A28.4922 24.4165 -180 0 0 9.64 850.39 A28.344 24.2894 -180
							 0 0 19.25 849.17 A29.4807 25.2635 -180 0 0 9.64 848.04 Z" class="st27"/>
			</g>
			<g id="shape1052-306" v:mID="1052" v:groupContext="shape" transform="translate(4.71988,-3.74824)">
				<title>Sheet.1052</title>
				<v:userDefs>
					<v:ud v:nameU="msvDisableCustomConnectionPoints" v:prompt="" v:val="VT0(1):5"/>
				</v:userDefs>
				<path d="M18.53 836.14 L18.53 837.03 A12.6522 10.8424 -180 0 0 18.34 838.37 C18.34 838.62 18.34 839 18.46 839.34
							 C18.58 839.68 18.46 839.91 18.46 840.1 A4.15151 3.55765 0 0 1 17.84 841.92 a1.06259 0.910588 -180 0
							 0 -3.55271E-15 0.148235 L18.09 842.33 A26.0705 22.3412 -180 0 0 20.71 837.29 C21.4 835.27 21.47 833.83
							 20.93 833.22 A6.37554 5.46353 -180 0 0 14.31 831.4 A8.13005 6.96706 0 0 1 16.56 832.82 A5.6342 4.82824
							 0 0 1 18.53 836.14 ZM17.77 836.31 A2.84181 2.43529 -180 0 0 15.82 836.5 C15.1 836.88 15.32 837.67 15.82
							 838.62 A19.2007 16.4541 -180 0 0 16.68 840.42 L16.9 840.76 C17.03 840.93 17.1 841.08 17.17 841.18 L17.37
							 841.46 A3.16306 2.71059 -180 0 0 17.82 840.08 A7.06746 6.05647 -180 0 0 17.82 839.38 C17.82 839.02 17.82
							 838.62 17.69 838.34 A15.0739 12.9176 0 0 1 17.89 836.88 A1.91019 1.63694 0 0 1 17.87 836.25 L17.77 836.31
							 ZM17.03 837.18 a0.988456 0.847059 0 0 1 -0.444805 0.211765 a0.815476 0.698824 0 0 1 -0.345959 0 a0.568362
							 0.487059 0 0 1 -0.17298 -0.402353 C16.06 836.84 16.33 836.71 16.66 836.67 L17.12 836.67 C17.12 836.67
							 17.35 836.67 17.35 836.84 a0.494228 0.423529 0 0 1 -0.222402 0.275294 L17.03 837.18 ZM5.44 839.06 L5.44
							 838.7 A2.47114 2.11765 -180 0 0 5.44 838.34 A13.7148 11.7529 0 0 1 5.44 836.23 A12.8993 11.0541 0 0
							 1 6.18 833.9 A5.95544 5.10353 0 0 1 7.61 831.91 A11.812 10.1224 -180 0 0 4.28 831.48 A4.62103 3.96 -180
							 0 0 1.56 832.12 A4.94228 4.23529 -180 0 0 0 835.97 A30.3209 25.9835 -180 0 0 1.24 840.72 C2.08 843.13
							 3.04 844.61 3.88 844.85 C4.25 844.95 4.65 844.85 5.04 844.4 C5.73 843.68 6.38 843.07 6.75 842.71 A4.64574
							 3.98118 0 0 1 5.54 839 L5.44 839.06 ZM6.08 839.91 A5.38708 4.61647 -180 0 0 6.23 841.1 A3.70671 3.17647
							 -180 0 0 6.87 842.03 A2.64412 2.26588 -180 0 0 7.73 842.56 A2.69354 2.30824 -180 0 0 8.7 842.73 C8.7
							 842.37 9.04 841.92 9.27 841.46 A10.7495 9.21176 -180 0 0 9.79 840.21 A16.3342 13.9976 -180 0 0 9.79
							 837.86 C9.79 837.67 9.79 837.45 9.64 837.22 a1.11201 0.952941 -180 0 0 -0.296537 -0.571765 A1.63095
							 1.39765 -180 0 0 8.65 836.31 L8.15 836.31 A3.85498 3.30353 -180 0 0 6.97 836.61 A4.94228 4.23529 -180
							 0 0 6.18 837.01 L6.18 838.53 A2.12518 1.82118 0 0 1 6.18 838.85 L6.18 839.68 L6.08 839.91 ZM7.71 837.07
							 a1.13672 0.974118 0 0 1 0.691919 0 A1.48268 1.27059 0 0 1 8.87 837.2 C9.09 837.2 9.12 837.43 9.09 837.5
							 a0.914321 0.783529 0 0 1 -0.296537 0.275294 a0.741342 0.635294 0 0 1 -0.148268 -0.0847059 a0.840187
							 0.72 0 0 1 -0.691919 -0.592941 L7.71 837.07 ZM9.54 843.43 a0.568362 0.487059 -180 0 0 -0.321248 0.127059
							 L8.87 843.91 C8.45 844.36 8.28 844.51 7.07 844.72 A1.28499 1.10118 -180 0 0 6.42 844.93 A1.43326 1.22824
							 -180 0 0 7.02 845.16 A2.91594 2.49882 -180 0 0 8.8 845.16 A4.20094 3.6 -180 0 0 9.76 844.61 A1.50739
							 1.29176 -180 0 0 10.26 843.96 a0.88961 0.762353 -180 0 0 -0.247114 -0.592941 a0.370671 0.317647 -180
							 0 0 -0.370671 -0.0423529 L9.54 843.43 ZM20.93 843.43 A4.02796 3.45176 0 0 1 18.14 843.43 a0.543651 0.465882
							 -180 0 0 -0.345959 0 a0.741342 0.635294 -180 0 0 -0.420094 0.296471 A2.69354 2.30824 -180 0 0 17.37
							 844.38 A4.44805 3.81176 -180 0 0 20.09 844.17 A3.36075 2.88 -180 0 0 21.28 843.45 L20.93 843.43 ZM15
							 838.89 C14.65 838.03 14.16 836.78 15.44 836.01 A3.33604 2.85882 0 0 1 17.64 835.7 A7.85822 6.73412 -180
							 0 0 16.06 833.26 L15.82 833.05 L15.67 832.92 a0.840187 0.72 -180 0 0 -0.148268 -0.127059 A5.78246 4.95529
							 -180 0 0 13.86 831.91 A6.4991 5.56941 -180 0 0 11.12 831.44 A3.75613 3.21882 -180 0 0 9.39 831.67 A4.37392
							 3.74824 -180 0 0 8.65 831.91 A5.18939 4.44706 -180 0 0 6.82 834.02 A14.4315 12.3671 -180 0 0 6.3 836.14
							 A4.10209 3.51529 0 0 1 8.77 835.65 A2.07576 1.77882 0 0 1 10.68 837.58 A17.9405 15.3741 0 0 1 10.68
							 840.27 A9.56331 8.19529 0 0 1 10.11 841.61 C9.96 841.97 9.76 842.35 9.66 842.64 A1.23557 1.05882 0 0
							 1 10.6 842.94 A1.63095 1.39765 0 0 1 11.07 844.06 L11.12 844.06 L11.12 844.57 A16.186 13.8706 -180 0
							 0 11.71 849.74 A1.33441 1.14353 -180 0 0 12.31 850.18 A1.48268 1.27059 -180 0 0 13.07 850.39 A3.21248
							 2.75294 -180 0 0 15.54 849.67 A2.5947 2.22353 -180 0 0 16.26 848.28 C16.43 847.32 16.8 844.68 16.85
							 844.04 A1.77922 1.52471 0 0 1 17.08 843.11 A1.55682 1.33412 0 0 1 17.74 842.6 A13.2453 11.3506 0 0 1
							 15.1 838.77 L15 838.89 Z" class="st28"/>
			</g>
			<g id="shape1047-308" v:mID="1047" v:groupContext="groupContent">
				<v:textBlock v:margins="rect(0,0,0,0)" v:tabSpace="42.5197"/>
				<v:textRect cx="15.84" cy="855.796" width="72" height="10.8036"/>
				<text x="-17.77" y="858.5" class="st17" v:langID="1033"><v:paragraph v:horizAlign="1"/><v:tabList/>PostgreSQL Server</text>			</g>
		</g>
		<g id="group1053-310" transform="translate(617.13,-331.835)" v:mID="1053" v:groupContext="group">
			<title>Network Security Groups.1053</title>
			<desc>Network Security Group</desc>
			<g id="shape1054-311" v:mID="1054" v:groupContext="shape">
				<title>Sheet.1054</title>
				<v:userDefs>
					<v:ud v:nameU="msvDisableCustomConnectionPoints" v:prompt="" v:val="VT0(1):5"/>
				</v:userDefs>
				<path d="M28.8 831.96 C28.8 841.26 17.35 848.75 14.87 850.26 a0.9 0.883319 0 0 1 -0.93913 0 C11.45 848.75 0 841.26
							 0 831.96 L0 820.79 a0.9 0.883319 0 0 1 0.880435 -0.883319 C9.78 819.67 7.73 815.83 14.4 815.83 C21.07
							 815.83 19.02 819.67 27.92 819.9 a0.9 0.883319 0 0 1 0.880435 0.883319 L28.8 831.96 Z" class="st16"/>
			</g>
			<g id="shape1055-313" v:mID="1055" v:groupContext="shape" transform="translate(1.19348,-1.43449)">
				<title>Sheet.1055</title>
				<v:userDefs>
					<v:ud v:nameU="msvDisableCustomConnectionPoints" v:prompt="" v:val="VT0(1):5"/>
				</v:userDefs>
				<path d="M26.41 833.49 C26.41 842.02 15.93 848.86 13.64 850.28 a0.841304 0.825711 0 0 1 -0.86087 0 C10.49 848.89
							 0 842.02 0 833.49 L0 823.24 a0.821739 0.806509 0 0 1 0.802174 -0.806509 C8.96 822.22 7.08 818.71 13.21
							 818.71 C19.33 818.71 17.45 822.22 25.61 822.43 a0.821739 0.806509 0 0 1 0.802174 0.806509 L26.41 833.49
							 Z" class="st29"/>
			</g>
			<g id="shape1056-315" v:mID="1056" v:groupContext="shape" transform="translate(1.25217,-1.43553)">
				<title>Sheet.1056</title>
				<v:userDefs>
					<v:ud v:nameU="msvDisableCustomConnectionPoints" v:prompt="" v:val="VT0(1):5"/>
				</v:userDefs>
				<path d="M13.15 834.55 L13.15 818.71 C19.27 818.71 17.39 822.22 25.55 822.43 a0.841304 0.825711 0 0 1 0.802174 0.825711
							 L26.35 833.51 A9.56739 9.39007 0 0 1 26.35 834.55 L13.15 834.55 ZM13.15 834.55 L0 834.55 C0.78 842.58
							 10.53 848.95 12.72 850.28 a0.763043 0.748901 -180 0 0 0.352174 0.115216 L13.15 850.39 L13.15 834.55
							 Z" class="st30"/>
			</g>
			<g id="shape1057-318" v:mID="1057" v:groupContext="shape" transform="translate(1.23758,-1.43553)">
				<title>Sheet.1057</title>
				<v:userDefs>
					<v:ud v:nameU="msvDisableCustomConnectionPoints" v:prompt="" v:val="VT0(1):5"/>
				</v:userDefs>
				<path d="M0.76 822.43 C8.92 822.22 7.04 818.71 13.16 818.71 L13.16 834.55 L0.01 834.55 A9.56739 9.39007 0 0 1 0.01
							 833.51 L0.01 823.26 a0.841304 0.825711 0 0 1 0.743478 -0.825711 ZM26.31 834.55 L13.16 834.55 L13.16
							 850.39 a0.763043 0.748901 -180 0 0 0.352174 -0.115216 C15.78 848.95 25.53 842.58 26.31 834.55 Z"
						class="st9"/>
			</g>
			<g id="shape1053-320" v:mID="1053" v:groupContext="groupContent">
				<v:textBlock v:margins="rect(0,0,0,0)" v:tabSpace="42.5197"/>
				<v:textRect cx="14.4" cy="861.196" width="72" height="21.6036"/>
				<text x="-17.19" y="858.5" class="st17" v:langID="1033"><v:paragraph v:horizAlign="1"/><v:tabList/>Network Security <tspan
							x="2.89" dy="1.2em" class="st4">Group</tspan></text>			</g>
		</g>
		<g id="shape1058-323" v:mID="1058" v:groupContext="shape" v:layerMember="0" transform="translate(650.551,-367.937)">
			<title>Dynamic connector.1058</title>
			<path d="M0 850.39 L31.72 808.93" class="st31"/>
		</g>
		<g id="shape1059-328" v:mID="1059" v:groupContext="shape" v:layerMember="0" transform="translate(611.433,-369.638)">
			<title>Dynamic connector.1059</title>
			<path d="M0 850.39 L-20.69 812.9" class="st31"/>
		</g>
		<g id="group1060-333" transform="translate(671.363,-634.394)" v:mID="1060" v:groupContext="group">
			<title>Alerts.1060</title>
			<desc>Azure best-practice alerts configured for production</desc>
			<g id="shape1061-334" v:mID="1061" v:groupContext="shape">
				<title>Sheet.1061</title>
				<v:userDefs>
					<v:ud v:nameU="msvDisableCustomConnectionPoints" v:prompt="" v:val="VT0(1):5"/>
				</v:userDefs>
				<path d="M34.56 817.28 L34.56 843.73 A1.17911 1.4169 0 0 1 33.38 845.15 L24.19 845.15 a0.304941 0.36644 -180 0 0
							 -0.304941 0.342011 L23.89 849.77 a0.569224 0.684022 0 0 1 -0.914824 0.561875 L17.44 845.22 L1.18 845.22
							 A1.17911 1.4169 0 0 1 -0 843.81 L0 817.28 A1.17911 1.4169 0 0 1 1.18 815.83 L33.38 815.83 A1.17911 1.4169
							 0 0 1 34.56 817.28 Z" class="st33"/>
			</g>
			<g id="shape1062-338" v:mID="1062" v:groupContext="shape" transform="translate(14.8405,-15.7005)">
				<title>Sheet.1062</title>
				<v:userDefs>
					<v:ud v:nameU="msvDisableCustomConnectionPoints" v:prompt="" v:val="VT0(1):5"/>
				</v:userDefs>
				<path d="M3.54 850.39 L1.18 850.39 a0.731859 0.879457 0 0 1 -0.772518 -0.830598 L0 835.25 a0.711529 0.855027 0 0
							 1 0.711529 -0.879457 L4.17 834.37 a0.711529 0.855027 0 0 1 0.711529 0.903886 L4.25 849.59 a0.711529
							 0.855027 0 0 1 -0.711529 0.806169 Z" class="st15"/>
			</g>
			<g id="shape1063-340" v:mID="1063" v:groupContext="shape" transform="translate(15.5113,-9.15347)">
				<title>Sheet.1063</title>
				<v:userDefs>
					<v:ud v:nameU="msvDisableCustomConnectionPoints" v:prompt="" v:val="VT0(1):5"/>
				</v:userDefs>
				<path d="M-0 848.9 A1.24012 1.49023 -180 0 0 1.24 850.39 L2.2 850.39 A1.24012 1.49023 -180 0 0 3.44 848.9 L3.44 847.76
							 A1.24012 1.49023 -180 0 0 2.2 846.27 L1.24 846.27 A1.24012 1.49023 -180 0 0 0 847.76 L0 848.9 Z"
						class="st15"/>
			</g>
			<g id="shape1060-342" v:mID="1060" v:groupContext="groupContent">
				<v:textBlock v:margins="rect(0,0,0,0)" v:tabSpace="42.5197"/>
				<v:textRect cx="17.28" cy="866.596" width="72" height="32.4036"/>
				<text x="-18.21" y="858.5" class="st17" v:langID="1033"><v:paragraph v:horizAlign="1"/><v:tabList/>Azure best-practice <tspan
							x="-13.7" dy="1.2em" class="st4">alerts configured </tspan><tspan x="-9.27" dy="1.2em" class="st4">for production</tspan></text>			</g>
		</g>
		<g id="shape1066-346" v:mID="1066" v:groupContext="shape" v:layerMember="0" transform="translate(540.702,-123.101)">
			<title>Dynamic connector.1066</title>
			<path d="M0 850.39 L90.83 850.39 L90.83 670.3" class="st31"/>
		</g>
		<g id="group1064-351" transform="translate(526.394,-702.843)" v:mID="1064" v:groupContext="group" v:layerMember="1">
			<v:userDefs>
				<v:ud v:nameU="BackFillColor" v:prompt="" v:val="VT5(#96afcf)"/>
				<v:ud v:nameU="BackLineColor" v:prompt="" v:val="VT5(#1f477d)"/>
				<v:ud v:nameU="BackCharColor" v:prompt="" v:val="VT5(#000000)"/>
				<v:ud v:nameU="DarkerColor" v:prompt="" v:val="VT5(#000000)"/>
				<v:ud v:nameU="visVersion" v:prompt="" v:val="VT0(15):26"/>
				<v:ud v:nameU="msvStructureType" v:prompt="" v:val="VT4(Callout)"/>
				<v:ud v:nameU="msvSDTargetIntersection" v:prompt=""/>
				<v:ud v:nameU="msvSDCalloutNoHighlight" v:prompt="" v:val="VT0(0):5"/>
				<v:ud v:nameU="msvShapeCategories" v:prompt="" v:val="VT0(0):26"/>
				<v:ud v:nameU="LeaderEnd" v:prompt="" v:val="VT7(PNT(-6MM,-9MM)):40"/>
				<v:ud v:nameU="Embellishment" v:prompt="" v:val="VT0(2):26"/>
				<v:ud v:nameU="MultiFormat" v:prompt="" v:val="VT0(0):26"/>
				<v:ud v:nameU="MultiFormatOffset" v:prompt="" v:val="VT0(0.049212598425197):24"/>
				<v:ud v:nameU="TailSize" v:prompt="" v:val="VT0(0.23622047244094):24"/>
				<v:ud v:nameU="TailPercentOfPath" v:prompt="" v:val="VT0(0.0702722890756):24"/>
				<v:ud v:nameU="NearPtPcnt" v:prompt="" v:val="VT0(0.62504182469866):26"/>
				<v:ud v:nameU="PntAlongPath" v:prompt="" v:val="VT7(PNT(0.14366464649628,0.010595823760808)):40"/>
				<v:ud v:nameU="PntOnEllp" v:prompt="" v:val="VT7(PNT(2.7319078844635MM,-0.047719769964571)):40"/>
				<v:ud v:nameU="Theta" v:prompt="" v:val="VT0(0.97860964724525):32"/>
				<v:ud v:nameU="AspectRatio" v:prompt="" v:val="VT0(0.6):26"/>
				<v:ud v:nameU="EllipseAngle" v:prompt="" v:val="VT0(0.10471975511966):37"/>
				<v:ud v:nameU="MajorX" v:prompt="" v:val="VT0(0.68869510569039):24"/>
				<v:ud v:nameU="MinorY" v:prompt="" v:val="VT0(0.35433070866142):1"/>
				<v:ud v:nameU="visMasterStencil" v:prompt="" v:val="VT4(SDCALL_M.vssx)"/>
				<v:ud v:nameU="BackFillColor" v:prompt="" v:val="VT5(#3d64ac)"/>
				<v:ud v:nameU="BackLineColor" v:prompt="" v:val="VT5(#31528f)"/>
				<v:ud v:nameU="BackCharColor" v:prompt="" v:val="VT5(#feffff)"/>
				<v:ud v:nameU="DarkerColor" v:prompt="" v:val="VT5(#31528f)"/>
				<v:ud v:nameU="msvSDTargetIntersection" v:prompt="" v:val="VT7(PNT(-0.017480336714705,0.46329714472605)):40"/>
				<v:ud v:nameU="LeaderEnd" v:prompt="" v:val="VT7(PNT(-0.017480336714705,0.46329714472605)):40"/>
				<v:ud v:nameU="TailPercentOfPath" v:prompt="" v:val="VT0(0.045900252202579):24"/>
				<v:ud v:nameU="NearPtPcnt" v:prompt="" v:val="VT0(0.47329860622459):26"/>
				<v:ud v:nameU="PntAlongPath" v:prompt="" v:val="VT7(PNT(-0.35432712500668,0.40672272393127)):40"/>
				<v:ud v:nameU="PntOnEllp" v:prompt="" v:val="VT7(PNT(-4.6329822495993MM,0.42211475845575)):40"/>
				<v:ud v:nameU="Theta" v:prompt="" v:val="VT0(0.20516414342205):32"/>
				<v:ud v:nameU="AspectRatio" v:prompt="" v:val="VT0(1.2):26"/>
				<v:ud v:nameU="EllipseAngle" v:prompt="" v:val="VT0(0.36191147369354):37"/>
				<v:ud v:nameU="MajorX" v:prompt="" v:val="VT0(0.9224704341622):24"/>
				<v:ud v:nameU="MinorY" v:prompt="" v:val="VT0(0.70866141732283):1"/>
			</v:userDefs>
			<title>Word Balloon.1064</title>
			<desc>Regular backups on Production</desc>
			<g id="shape1065-352" v:mID="1065" v:groupContext="shape" v:layerMember="1">
				<title>Sheet.1065</title>
				<v:userDefs>
					<v:ud v:nameU="Embellishment" v:prompt="" v:val="VT0(2):26"/>
					<v:ud v:nameU="MultiFormat" v:prompt="" v:val="VT0(0):26"/>
					<v:ud v:nameU="MultiFormatOffset" v:prompt="" v:val="VT0(0.049212598425197):24"/>
					<v:ud v:nameU="TailSize" v:prompt="" v:val="VT0(0.23622047244094):24"/>
					<v:ud v:nameU="TailPercentOfPath" v:prompt="" v:val="VT0(0.0702722890756):24"/>
					<v:ud v:nameU="NearPtPcnt" v:prompt="" v:val="VT0(0.62504182469866):26"/>
					<v:ud v:nameU="AspectRatio" v:prompt="" v:val="VT0(0.6):26"/>
					<v:ud v:nameU="EllipseAngle" v:prompt="" v:val="VT0(0.10471975511966):37"/>
					<v:ud v:nameU="MajorX" v:prompt="" v:val="VT0(0.68869510569039):24"/>
					<v:ud v:nameU="MinorY" v:prompt="" v:val="VT0(0.35433070866142):1"/>
					<v:ud v:nameU="TailPercentOfPath" v:prompt="" v:val="VT0(0.045900252202579):24"/>
					<v:ud v:nameU="NearPtPcnt" v:prompt="" v:val="VT0(0.47329860622459):26"/>
					<v:ud v:nameU="AspectRatio" v:prompt="" v:val="VT0(1.2):26"/>
					<v:ud v:nameU="EllipseAngle" v:prompt="" v:val="VT0(0.36191147369354):37"/>
					<v:ud v:nameU="MajorX" v:prompt="" v:val="VT0(0.9224704341622):24"/>
					<v:ud v:nameU="MinorY" v:prompt="" v:val="VT0(0.70866141732283):1"/>
				</v:userDefs>
			</g>
			<g id="shape1064-354" v:mID="1064" v:groupContext="groupContent" v:layerMember="1">
				<v:textBlock v:margins="rect(4,4,4,4)" v:tabSpace="42.5197"/>
				<v:textRect cx="35.4331" cy="807.874" width="70.87" height="44.0037"/>
				<path d="M-29.24 815.85 A20.4389 15.7016 -20.74 0 1 -45.7 825.09 A21.2431 16.3194 159.26 0 0 -28.29 825.99 A66.4179
							 51.0236 159.26 1 0 -29.24 815.85 Z" class="st34"/>
				<text x="19.96" y="798.87" class="st35" v:langID="1033"><v:paragraph v:horizAlign="1"/><v:tabList/>Regular <tspan
							x="12.42" dy="1.2em" class="st4">backups on </tspan><tspan x="13.02" dy="1.2em" class="st4">Production</tspan></text>			</g>
		</g>
	</g>
</svg>
